<?xml version="1.0" standalone="no"?>
<!DOCTYPE svg PUBLIC "-//W3C//DTD SVG 20010904//EN"
 "http://www.w3.org/TR/2001/REC-SVG-20010904/DTD/svg10.dtd">
<svg version="1.0" xmlns="http://www.w3.org/2000/svg"
 width="2048.000000pt" height="2048.000000pt" viewBox="0 0 2048.000000 2048.000000"
 preserveAspectRatio="xMidYMid meet">

<g transform="translate(0.000000,2048.000000) scale(0.100000,-0.100000)"
fill="#000000" stroke="none">
<path d="M9880 20474 c-630 -29 -1100 -85 -1650 -194 -894 -177 -1699 -452
-2535 -865 -1986 -981 -3620 -2608 -4614 -4595 -567 -1135 -919 -2365 -1035
-3620 -33 -358 -40 -526 -40 -970 1 -455 11 -672 49 -1050 294 -2872 1806
-5499 4155 -7215 1507 -1101 3283 -1766 5145 -1925 994 -85 1982 -28 2950 170
1740 356 3357 1163 4701 2346 1438 1266 2496 2915 3044 4746 222 741 352 1472
412 2323 19 267 16 1023 -6 1305 -48 645 -133 1194 -273 1760 -683 2770 -2491
5128 -4999 6518 -1298 719 -2715 1136 -4244 1247 -200 15 -890 27 -1060 19z
m1000 -184 c529 -38 959 -96 1417 -191 2766 -572 5187 -2312 6630 -4764 195
-332 408 -750 556 -1095 700 -1621 960 -3380 761 -5150 -432 -3858 -3104
-7158 -6799 -8398 -1291 -433 -2695 -602 -4045 -486 -867 74 -1643 238 -2465
521 -1879 647 -3565 1882 -4766 3493 -1475 1976 -2168 4397 -1964 6860 176
2116 1010 4107 2401 5726 304 353 711 760 1069 1068 1131 973 2459 1682 3890
2076 695 192 1445 311 2200 350 211 11 920 5 1115 -10z"/>
<path d="M8276 19870 c-2 -8 -16 -70 -30 -137 l-26 -122 25 -98 c17 -65 60
-377 129 -938 131 -1057 124 -979 86 -1037 -34 -51 -105 -111 -330 -280 -217
-162 -287 -224 -450 -400 -199 -215 -288 -288 -350 -288 -43 0 -90 32 -118 79
-25 42 -27 54 -26 146 3 180 74 441 208 756 84 197 110 237 183 287 79 54 227
127 320 158 73 25 85 26 193 19 63 -4 133 -8 155 -9 l39 -1 38 95 c20 52 37
100 37 106 1 7 -40 13 -112 17 -204 12 -366 48 -536 119 -336 140 -310 132
-397 132 -71 1 -85 -2 -122 -27 -54 -35 -89 -89 -104 -159 -18 -87 -17 -88
117 -88 85 0 124 4 146 15 20 11 41 14 67 9 34 -6 312 -101 320 -109 6 -6
-261 -143 -342 -175 -176 -70 -226 -48 -321 141 -38 75 -77 125 -105 134 -32
10 -86 -21 -119 -69 -96 -138 -148 -417 -119 -633 12 -92 12 -103 -2 -103 -8
0 -46 -12 -85 -25 -120 -42 -221 -121 -435 -336 -243 -244 -346 -319 -440
-319 -46 0 -93 40 -112 95 -45 132 3 307 152 554 28 47 49 90 47 95 -2 6 7 19
20 29 27 22 53 70 78 145 17 54 14 75 -7 54 -16 -16 -53 -15 -66 1 -47 59 1
234 104 380 45 63 43 80 -4 34 -72 -70 -162 -243 -197 -377 -24 -93 -18 -206
13 -230 12 -10 27 -20 34 -22 6 -2 -28 -67 -82 -154 -143 -228 -185 -352 -178
-534 5 -122 29 -191 84 -240 69 -60 151 -59 266 2 77 41 133 91 317 283 194
203 230 236 318 295 82 54 143 78 223 86 70 8 127 -13 232 -84 52 -35 78 -47
81 -39 11 28 29 164 25 192 -2 24 -26 48 -125 130 -134 110 -163 142 -193 206
-25 56 -25 102 0 155 28 57 92 128 130 144 28 11 34 11 58 -7 15 -10 52 -57
83 -103 74 -111 105 -132 186 -128 44 3 78 13 122 35 34 17 61 29 61 26 0 -3
-41 -96 -91 -207 -159 -348 -230 -605 -231 -826 -1 -157 22 -230 95 -305 58
-59 100 -73 166 -55 76 20 158 90 377 316 120 123 262 262 317 307 104 86 329
249 335 243 2 -2 -5 -33 -16 -68 -35 -113 -45 -197 -40 -338 4 -113 9 -146 30
-203 34 -91 72 -143 127 -175 64 -38 168 -37 259 1 148 62 216 119 602 507
201 201 398 395 439 430 88 74 192 152 197 147 2 -2 -16 -46 -40 -98 -217
-467 -251 -929 -77 -1046 113 -76 286 33 551 347 151 179 255 271 429 378 219
136 228 144 261 215 40 85 60 195 69 373 11 209 4 295 -88 1046 -45 361 -81
662 -81 670 0 7 20 -9 45 -37 l44 -50 1 34 c0 33 -187 511 -200 511 -8 0 -50
-218 -50 -260 0 -19 9 -66 20 -104 17 -62 218 -1642 236 -1856 5 -59 3 -83 -9
-106 -26 -51 -108 -118 -290 -238 -230 -151 -331 -237 -469 -398 -128 -149
-260 -278 -309 -303 -40 -21 -111 -15 -140 11 -45 41 -54 73 -53 189 0 61 9
150 18 199 30 156 117 415 162 484 l15 23 38 -48 c21 -26 64 -73 95 -103 67
-65 80 -62 109 21 24 70 18 152 -19 243 -14 37 -25 68 -23 70 21 16 264 149
419 229 107 55 197 102 199 103 2 2 19 52 36 111 l33 108 -136 26 c-76 15
-247 52 -382 82 -317 72 -432 89 -530 78 -151 -17 -206 -72 -226 -227 -8 -68
15 -148 63 -212 21 -27 84 -91 141 -142 56 -51 102 -96 102 -99 0 -4 -15 -15
-32 -26 -118 -68 -325 -253 -589 -523 -316 -325 -477 -466 -612 -533 -62 -32
-137 -46 -182 -35 -41 10 -110 81 -136 139 -21 46 -24 67 -24 182 0 147 12
198 76 329 52 108 75 206 89 373 16 197 4 341 -93 1111 -45 358 -81 652 -79
652 2 0 23 -21 47 -47 l44 -48 0 35 c0 42 -195 532 -203 510z m1919 -1701
c127 -20 353 -73 364 -85 3 -4 2 -8 -4 -10 -5 -2 -109 -58 -230 -123 l-220
-119 -60 66 c-88 99 -160 162 -304 269 -23 17 119 32 239 26 52 -2 149 -13
215 -24z"/>
<path d="M8682 19833 c-49 -226 -48 -218 -28 -285 9 -35 62 -412 117 -838 124
-973 137 -1090 143 -1275 4 -114 8 -150 18 -150 15 0 30 42 54 151 35 163 26
286 -85 1171 -56 441 -101 806 -101 810 0 4 20 -14 45 -42 l44 -50 1 35 c0 29
-184 520 -195 520 -2 0 -8 -21 -13 -47z"/>
<path d="M11276 19743 l-28 -140 21 -74 c14 -48 53 -326 111 -789 128 -1034
139 -1128 146 -1303 9 -203 26 -204 70 -1 35 162 26 289 -80 1149 -52 429 -98
792 -101 808 -6 38 4 33 45 -18 80 -102 67 -36 -46 243 -53 130 -99 243 -103
251 -5 7 -20 -46 -35 -126z"/>
<path d="M12856 19739 l-28 -132 26 -101 c18 -70 58 -360 131 -941 108 -866
125 -1031 125 -1192 0 -92 1 -94 23 -91 17 2 25 13 35 53 20 80 35 291 29 405
-6 93 -189 1601 -202 1658 -8 33 6 26 45 -23 79 -99 67 -33 -47 252 -53 134
-100 243 -103 243 -4 0 -19 -59 -34 -131z"/>
<path d="M12047 19735 c-13 -92 -9 -134 18 -169 70 -92 96 -199 96 -406 1
-182 8 -181 35 5 21 139 14 260 -20 378 -28 95 -61 165 -99 211 l-24 29 -6
-48z"/>
<path d="M9794 19707 c-31 -27 -54 -82 -54 -133 0 -28 1 -29 48 -26 53 4 132
-13 132 -28 0 -16 -79 -70 -162 -110 -42 -21 -74 -40 -71 -44 4 -3 25 -6 47
-6 42 0 158 49 218 92 34 24 113 140 123 181 7 26 3 29 -61 58 -43 20 -92 33
-129 36 -54 5 -64 3 -91 -20z"/>
<path d="M10735 19503 c-320 -73 -701 -296 -951 -556 -101 -104 -126 -146
-150 -244 -6 -25 -2 -22 36 22 230 266 587 497 950 615 l115 37 33 68 c18 37
32 69 30 70 -2 1 -30 -4 -63 -12z"/>
<path d="M7975 19395 c-336 -87 -622 -265 -855 -530 -74 -84 -78 -92 -85 -148
-3 -32 -4 -61 -2 -63 2 -2 27 25 56 61 215 264 545 480 886 579 48 14 89 27
91 28 7 9 15 98 8 98 -5 -1 -49 -12 -99 -25z"/>
<path d="M9216 19280 c7 -112 8 -116 41 -155 78 -92 112 -221 94 -363 -6 -45
-26 -147 -46 -228 -19 -80 -35 -159 -35 -175 0 -64 47 -129 93 -129 47 0 87
32 118 96 59 119 47 265 -27 339 -19 19 -42 35 -50 35 -13 0 -15 7 -10 33 3
17 9 86 12 152 6 105 4 131 -15 200 -28 102 -90 221 -142 271 l-40 39 7 -115z
m225 -759 c27 -26 49 -55 49 -64 0 -9 -14 -32 -31 -51 -38 -44 -90 -57 -119
-31 -41 37 -14 195 33 195 11 0 42 -22 68 -49z"/>
<path d="M14132 19345 c-12 -15 -30 -50 -41 -80 -21 -56 -61 -248 -61 -293 0
-37 -13 -18 -40 58 -51 145 -109 192 -165 135 -22 -21 -25 -33 -25 -90 0 -60
3 -69 29 -96 42 -42 81 -38 99 11 9 23 10 22 31 -25 12 -28 32 -78 44 -112 12
-35 25 -63 28 -63 3 0 11 51 18 113 14 132 36 218 63 246 22 25 28 26 54 6 27
-20 31 -19 43 16 15 43 14 138 -2 169 -18 35 -50 37 -75 5z"/>
<path d="M6808 19284 c-35 -18 -57 -62 -65 -122 l-5 -47 58 -1 c33 0 77 -6 99
-13 l39 -14 -39 -35 c-22 -19 -80 -54 -130 -78 -67 -32 -85 -45 -72 -50 36
-13 111 7 201 54 86 45 93 51 138 122 26 41 50 87 53 101 6 24 2 28 -52 51
-111 50 -176 59 -225 32z"/>
<path d="M11881 19265 c-77 -65 -199 -291 -235 -436 -20 -83 -21 -210 -1 -248
28 -54 81 -56 124 -4 30 36 93 191 84 206 -2 4 -14 0 -26 -8 -54 -38 -87 -2
-87 96 0 101 38 197 132 337 27 41 48 76 45 78 -2 3 -19 -7 -36 -21z"/>
<path d="M13525 19168 c-57 -63 -115 -160 -159 -265 -50 -118 -69 -207 -64
-303 3 -75 6 -84 31 -106 48 -41 83 -29 129 46 21 35 68 167 61 173 -3 3 -21
-2 -40 -11 -34 -16 -35 -16 -54 6 -60 75 -19 239 104 420 32 45 57 85 57 87 0
16 -24 -2 -65 -47z"/>
<path d="M7956 19115 c-17 -44 -17 -51 -1 -134 22 -114 19 -145 -17 -149 -38
-4 -54 26 -67 128 -11 85 -28 160 -36 160 -3 0 -12 -14 -21 -32 -15 -29 -15
-43 -4 -129 6 -53 9 -111 5 -127 -8 -39 -38 -66 -63 -57 -31 9 -42 57 -42 179
l-1 111 -28 -31 c-32 -35 -71 -130 -71 -172 1 -25 2 -24 19 13 17 35 20 37 21
15 8 -164 18 -221 40 -245 41 -44 98 -26 131 42 l21 43 34 -30 c65 -57 123
-27 144 75 13 63 9 137 -16 275 -21 114 -27 122 -48 65z"/>
<path d="M12618 19104 c-35 -18 -57 -62 -65 -122 l-5 -47 47 3 c49 4 135 -15
135 -29 0 -16 -83 -71 -165 -110 -76 -36 -78 -38 -50 -45 37 -9 137 24 216 72
56 34 122 117 148 186 9 24 7 30 -14 44 -36 23 -156 64 -190 63 -16 0 -42 -6
-57 -15z"/>
<path d="M10585 19046 c-18 -46 -18 -52 -2 -130 23 -107 22 -143 -2 -156 -23
-12 -48 -4 -61 20 -5 9 -14 59 -20 110 -7 50 -17 108 -24 128 l-13 37 -20 -40
c-19 -38 -20 -44 -6 -120 22 -124 8 -185 -43 -185 -45 0 -58 39 -57 168 l1
117 -28 -31 c-30 -34 -70 -131 -70 -167 1 -18 4 -16 20 13 l19 35 1 -60 c1
-100 17 -186 39 -208 42 -42 122 -10 136 54 8 35 16 36 41 8 45 -50 111 -42
138 16 28 59 14 317 -22 416 -8 21 -10 19 -27 -25z"/>
<path d="M12325 18991 c-17 -53 -17 -58 0 -148 21 -114 16 -143 -25 -143 -38
0 -49 21 -60 120 -10 92 -27 160 -39 160 -5 0 -14 -14 -21 -31 -10 -24 -11
-50 -2 -124 15 -117 3 -168 -40 -173 -20 -2 -31 4 -45 24 -15 23 -18 48 -17
147 l0 120 -23 -29 c-34 -42 -65 -113 -70 -159 l-4 -40 19 34 19 34 5 -109 c6
-143 26 -184 90 -184 26 0 88 62 88 89 0 23 15 28 23 8 2 -7 20 -21 40 -31 30
-17 39 -18 65 -7 54 23 66 65 59 215 -3 74 -14 164 -24 206 l-19 75 -19 -54z"/>
<path d="M14525 18713 c-31 -105 -33 -88 20 -248 134 -409 215 -667 215 -688
0 -33 -59 -59 -105 -46 -45 13 -102 82 -123 151 -10 32 -22 60 -26 61 -4 1
-26 -41 -47 -93 -43 -101 -90 -159 -131 -161 -47 -3 -64 3 -87 29 -22 25 -23
31 -17 114 3 48 4 88 2 88 -2 0 -39 -45 -81 -101 -43 -55 -91 -109 -108 -120
-43 -25 -111 -34 -158 -20 -61 18 -101 61 -159 171 -30 56 -62 108 -72 117
-40 36 -116 -20 -171 -124 -83 -161 -116 -309 -98 -443 19 -144 19 -143 -41
-158 -88 -21 -174 -82 -378 -273 -341 -319 -445 -399 -531 -407 -46 -4 -51 -2
-82 30 -86 91 -76 248 29 464 24 50 59 112 77 137 l33 47 30 -31 c63 -67 182
-91 249 -49 77 48 125 164 132 321 5 95 2 118 -26 231 -25 101 -120 413 -148
484 -5 14 -3 14 25 0 76 -39 69 -1 -23 132 -124 176 -108 170 -129 55 l-17
-98 91 -300 c50 -165 107 -358 127 -430 l35 -129 -29 -27 c-37 -32 -90 -43
-142 -29 -50 13 -133 88 -160 143 -12 25 -34 129 -56 257 -40 241 -83 422
-123 519 -36 87 -56 91 -74 14 -23 -102 -16 -172 42 -403 48 -195 53 -226 54
-330 1 -102 -2 -120 -23 -160 -86 -165 -269 -221 -354 -109 -14 19 -35 63 -48
99 -32 93 -30 272 5 472 30 172 31 201 10 265 -26 77 -37 83 -69 33 -37 -58
-99 -218 -124 -315 -11 -44 -30 -177 -41 -295 -22 -229 -36 -296 -72 -350 -33
-48 -50 -56 -87 -40 -64 26 -106 144 -136 378 -8 68 -15 161 -15 207 0 86 -13
119 -24 64 -11 -58 -6 -314 9 -404 46 -283 128 -445 225 -445 37 0 65 23 89
75 34 73 49 154 71 399 20 206 44 349 68 392 5 8 7 -80 4 -203 -6 -296 16
-421 93 -533 46 -66 130 -97 216 -79 93 20 161 109 213 279 15 47 29 92 32 99
3 9 17 -12 35 -50 l31 -66 -45 -69 c-201 -312 -228 -605 -71 -767 49 -51 89
-70 140 -69 91 2 183 62 364 237 325 315 396 370 530 415 95 32 168 27 254
-16 39 -20 80 -43 91 -50 11 -8 23 -14 27 -14 12 0 27 70 34 150 l5 75 -81 54
c-167 111 -250 208 -250 292 0 104 76 229 138 229 38 0 47 -13 97 -130 54
-126 106 -172 194 -173 62 -1 113 27 186 102 33 34 63 61 66 61 3 0 18 -27 34
-60 25 -52 34 -62 67 -72 77 -23 158 24 207 119 l27 55 25 -37 c32 -48 132
-115 173 -115 80 0 144 93 171 247 33 186 12 302 -110 590 -77 181 -79 193
-30 163 30 -18 36 -19 41 -7 3 8 -2 30 -12 49 -26 51 -155 257 -163 263 -4 2
-21 -39 -36 -92z"/>
<path d="M6526 18698 c-37 -51 -64 -149 -102 -378 -6 -34 -7 -33 -33 42 -32
90 -72 154 -106 170 -64 29 -111 -30 -103 -131 4 -45 10 -59 37 -83 41 -37 67
-36 91 4 l19 32 20 -47 c11 -26 33 -81 47 -123 15 -41 28 -73 29 -72 2 2 10
62 19 133 25 198 52 275 96 275 10 0 23 -7 30 -15 7 -8 16 -15 20 -15 17 0 35
69 34 128 -3 106 -49 144 -98 80z"/>
<path d="M14037 18600 c-26 -20 -40 -55 -51 -120 l-6 -36 67 -1 c38 0 82 -6
98 -13 l30 -11 -35 -30 c-19 -16 -74 -49 -122 -74 -89 -44 -96 -59 -30 -57 46
2 194 74 235 115 18 18 49 65 70 105 l38 71 -32 17 c-107 55 -217 69 -262 34z"/>
<path d="M9265 17928 c-10 -31 -55 -193 -55 -200 0 -4 26 -21 58 -37 31 -17
71 -39 87 -50 17 -12 33 -21 36 -21 9 0 24 40 50 133 26 93 25 96 -81 151 -74
39 -88 43 -95 24z"/>
<path d="M6512 17823 c-11 -16 -36 -62 -57 -103 -118 -238 -302 -428 -550
-569 -49 -28 -93 -51 -97 -51 -4 0 -8 -4 -8 -9 0 -12 99 11 185 44 194 73 335
214 443 443 l38 81 43 -30 c49 -32 86 -37 95 -13 18 48 -6 177 -40 215 -23 25
-29 24 -52 -8z m70 -131 c-13 -4 -72 25 -72 36 0 5 6 14 13 21 10 10 18 6 41
-20 16 -18 24 -35 18 -37z"/>
<path d="M10493 17711 c-38 -24 -59 -54 -68 -99 l-7 -33 34 21 c30 18 108 29
108 14 0 -3 -17 -36 -39 -72 -57 -100 -74 -153 -69 -214 13 -132 163 -149 256
-30 32 40 55 83 67 122 7 22 2 20 -39 -18 -56 -52 -81 -62 -152 -62 -124 0
-124 93 -1 226 53 58 97 137 83 152 -4 3 -37 8 -74 10 -54 2 -73 -1 -99 -17z"/>
<path d="M7705 17706 c-45 -20 -83 -66 -91 -110 l-7 -39 29 21 c34 24 84 36
102 24 9 -6 1 -28 -33 -87 -58 -103 -68 -135 -63 -203 4 -47 10 -60 38 -85 30
-26 38 -29 87 -25 40 4 62 12 89 34 41 33 100 124 110 169 l6 30 -31 -37 c-63
-74 -178 -101 -236 -56 -23 18 -26 26 -22 55 7 40 50 111 103 168 49 53 82
124 63 136 -8 5 -24 9 -35 9 -12 0 -34 2 -50 5 -16 3 -42 -1 -59 -9z"/>
<path d="M8767 17590 c-14 -11 -46 -52 -72 -90 -119 -178 -181 -393 -144 -499
19 -54 70 -67 107 -28 25 26 69 120 78 166 l7 33 -31 -16 c-30 -16 -33 -15
-53 5 -19 19 -21 30 -17 98 6 90 33 157 109 266 54 79 59 99 16 65z"/>
<path d="M14545 17242 l-31 -107 92 -53 c51 -28 95 -52 98 -52 3 0 16 37 30
83 42 141 42 133 -6 168 -48 35 -115 68 -138 69 -11 0 -24 -32 -45 -108z"/>
<path d="M4605 17293 c-47 -26 -191 -87 -420 -180 -405 -164 -531 -236 -696
-402 -171 -171 -266 -334 -319 -544 -15 -62 -32 -155 -38 -207 l-10 -95 -82
-110 c-204 -272 -442 -655 -611 -980 -49 -93 -89 -165 -89 -160 0 6 16 123 36
260 25 173 42 259 54 279 10 16 97 109 192 205 188 190 229 247 275 380 39
110 38 284 0 506 -16 88 -31 193 -35 234 l-7 75 -64 -90 c-38 -53 -131 -156
-231 -254 -230 -227 -289 -308 -325 -447 -31 -119 -18 -217 62 -457 52 -158
52 -143 9 -406 -13 -86 -34 -232 -46 -324 -21 -164 -23 -173 -82 -310 -121
-282 -245 -632 -337 -951 -43 -149 -129 -496 -151 -607 -8 -38 -17 -68 -22
-68 -22 0 -110 228 -123 322 -7 45 -3 56 78 220 141 288 194 445 216 641 23
200 -16 370 -127 560 -36 62 -96 172 -133 245 l-67 134 -38 -119 c-25 -78 -76
-194 -151 -343 -154 -306 -193 -432 -193 -618 0 -179 46 -287 220 -517 112
-148 119 -160 130 -223 26 -153 77 -296 139 -386 l32 -45 -26 -138 c-112 -616
-185 -1420 -185 -2052 l0 -195 -41 55 c-85 113 -239 401 -239 447 0 7 18 36
39 65 136 182 189 447 146 730 -35 234 -117 397 -350 702 -51 66 -122 162
-158 212 l-65 93 -7 -73 c-12 -126 -33 -255 -84 -507 -60 -299 -75 -424 -68
-555 18 -316 145 -516 409 -646 l66 -33 47 -110 c79 -187 173 -352 268 -468
l46 -57 11 -203 c26 -502 89 -988 185 -1432 20 -92 34 -170 32 -172 -7 -8
-167 142 -259 242 l-88 95 24 47 c37 73 75 205 85 293 16 143 -14 289 -89 440
-84 170 -177 277 -415 479 -144 122 -231 207 -286 278 l-26 34 -9 -214 c-15
-368 -12 -530 15 -628 71 -267 191 -431 466 -637 103 -78 184 -151 307 -278
92 -94 200 -197 241 -229 70 -54 75 -59 87 -114 52 -236 224 -765 351 -1082
82 -205 231 -539 295 -659 18 -36 32 -67 29 -69 -6 -7 -163 70 -227 110 -29
19 -83 60 -121 92 l-67 57 0 147 c-1 261 -35 435 -120 607 -112 225 -316 427
-526 521 -65 29 -367 142 -372 139 -1 -1 5 -35 13 -75 15 -71 25 -169 45 -460
18 -261 82 -418 239 -584 111 -117 231 -185 506 -286 153 -57 176 -68 236
-120 120 -103 226 -166 360 -214 l89 -32 67 -120 c334 -602 728 -1136 1245
-1686 l123 -131 -75 6 c-99 7 -214 32 -327 69 -93 30 -93 30 -103 72 -52 203
-117 374 -182 483 -44 74 -156 194 -232 248 -102 73 -252 141 -436 200 -340
109 -413 142 -533 240 -31 25 -57 45 -60 45 -5 0 67 -274 104 -395 142 -459
430 -753 842 -859 100 -26 259 -46 363 -46 53 0 94 -10 208 -49 173 -60 310
-91 436 -98 l95 -6 115 -108 c499 -465 1130 -922 1685 -1220 l100 -54 -54 -3
c-50 -3 -335 21 -407 34 -25 5 -41 20 -80 76 -141 207 -424 423 -654 501 -192
65 -452 65 -825 1 -49 -9 -142 -19 -205 -22 l-115 -7 80 -56 c84 -59 173 -143
395 -374 81 -85 163 -159 205 -187 149 -99 341 -150 560 -149 196 1 339 33
502 112 l82 41 73 -11 c156 -23 373 -41 491 -41 l124 0 164 -79 c320 -153 643
-285 989 -402 l215 -73 -50 -9 c-27 -5 -151 -10 -275 -11 l-225 -1 -95 95
c-236 235 -567 333 -913 271 -186 -34 -317 -81 -544 -197 -180 -93 -231 -113
-347 -139 -26 -5 -12 -16 160 -112 287 -162 523 -264 684 -298 329 -68 701 27
968 249 l59 49 269 2 c238 1 282 4 382 24 l112 23 118 -32 c64 -17 143 -39
175 -47 l58 -16 -83 -49 c-126 -74 -451 -232 -559 -272 -330 -121 -607 -138
-690 -42 -13 14 -26 26 -30 26 -3 0 -12 -20 -19 -45 -57 -203 177 -455 540
-583 189 -66 393 -100 655 -109 614 -20 1086 175 1348 558 31 46 57 78 57 72
0 -6 -7 -44 -15 -84 -8 -41 -21 -145 -30 -231 -18 -193 -30 -220 -124 -276
l-34 -21 33 -20 c101 -61 409 -27 605 68 99 47 189 115 234 174 l34 46 25 -50
c14 -27 72 -99 130 -161 83 -91 112 -130 145 -200 23 -48 44 -87 47 -87 3 0
24 39 47 87 33 70 62 109 145 200 58 62 116 134 130 162 l25 49 32 -44 c41
-57 136 -128 236 -176 196 -95 504 -129 605 -68 l33 20 -34 21 c-94 56 -106
83 -125 276 -8 86 -23 196 -32 245 -10 48 -15 84 -12 80 4 -5 31 -44 61 -87
257 -378 733 -573 1344 -553 350 12 619 73 841 191 257 137 400 338 354 501
-7 25 -16 45 -19 45 -4 0 -17 -12 -30 -26 -85 -98 -361 -79 -702 48 -122 45
-413 186 -543 264 -55 32 -75 49 -65 54 8 4 86 26 173 49 l159 43 111 -23 c98
-20 143 -23 380 -24 l269 -2 64 -52 c179 -148 399 -238 638 -262 289 -30 538
48 1018 319 125 70 173 102 160 105 -10 3 -44 11 -76 17 -37 8 -133 50 -273
120 -238 121 -366 168 -551 201 -346 62 -678 -36 -913 -271 l-95 -95 -225 1
c-124 1 -247 6 -275 11 l-50 9 175 58 c340 114 711 264 1027 416 l166 80 126
0 c123 0 341 18 489 41 l73 11 82 -41 c163 -79 306 -111 502 -112 219 -1 411
50 560 149 42 28 124 102 205 187 222 231 311 315 395 374 l80 56 -115 7 c-63
3 -156 13 -205 22 -214 37 -307 47 -444 47 -245 0 -368 -27 -541 -118 -170
-88 -382 -272 -486 -420 -26 -37 -50 -71 -54 -76 -4 -4 -60 -14 -125 -22 -129
-16 -373 -31 -365 -22 3 3 64 38 135 78 586 327 1143 731 1625 1180 l135 126
95 6 c125 7 262 38 434 97 130 44 151 48 266 54 149 7 266 26 375 61 379 124
640 406 774 840 37 120 109 395 104 395 -2 0 -31 -21 -63 -48 -121 -97 -189
-128 -525 -235 -267 -85 -437 -178 -561 -308 -137 -145 -210 -299 -294 -626
l-11 -42 -92 -30 c-116 -37 -231 -61 -327 -68 l-75 -6 125 133 c515 548 910
1084 1249 1694 l61 110 91 32 c115 41 217 100 320 183 112 91 117 94 264 146
166 60 320 133 399 189 125 89 247 247 300 387 37 98 54 211 66 425 9 165 26
308 47 392 l5 23 -48 -19 c-27 -11 -95 -36 -152 -56 -151 -55 -226 -90 -320
-153 -198 -131 -363 -346 -437 -567 -44 -130 -55 -210 -62 -424 l-6 -203 -66
-56 c-36 -31 -90 -72 -119 -91 -60 -38 -221 -117 -226 -111 -2 2 19 51 48 109
165 336 318 706 435 1055 69 208 167 537 191 647 12 55 17 61 84 112 66 51
237 218 337 330 24 27 114 102 199 166 293 222 409 380 481 650 26 99 30 266
15 628 l-9 213 -31 -38 c-67 -83 -147 -161 -291 -283 -232 -196 -321 -299
-406 -469 -119 -238 -122 -475 -9 -718 l29 -63 -91 -97 c-95 -103 -248 -246
-255 -239 -2 2 12 80 32 172 96 444 159 930 185 1432 l11 203 46 57 c95 116
189 281 268 467 l46 110 82 42 c255 131 376 327 394 638 7 131 -8 257 -68 554
-50 249 -72 380 -84 508 l-7 72 -77 -107 c-43 -59 -129 -175 -192 -259 -228
-304 -303 -488 -316 -779 -11 -235 44 -438 160 -593 38 -52 39 -55 27 -90 -39
-113 -135 -290 -223 -411 l-44 -60 -6 338 c-7 352 -16 535 -42 837 -29 341
-90 801 -146 1098 l-20 107 32 46 c62 91 119 254 144 412 5 33 28 70 105 171
185 241 229 334 238 504 10 199 -27 325 -187 647 -77 154 -131 276 -155 353
l-38 119 -67 -134 c-37 -73 -97 -183 -133 -245 -110 -188 -149 -357 -128 -556
20 -191 76 -357 217 -645 81 -164 85 -175 78 -220 -13 -94 -101 -322 -123
-322 -5 0 -14 30 -22 68 -25 129 -111 468 -165 652 -94 321 -201 620 -323 906
-59 137 -61 146 -82 310 -12 92 -33 238 -46 324 -43 263 -43 248 9 406 26 77
53 168 62 204 31 134 14 261 -52 380 -50 93 -86 134 -273 320 -97 96 -194 202
-231 254 l-64 89 -11 -99 c-6 -54 -24 -175 -39 -269 -33 -208 -31 -329 9 -447
44 -132 85 -189 276 -380 97 -98 184 -192 193 -210 14 -27 88 -479 87 -530 0
-7 -40 64 -89 157 -168 325 -415 720 -610 979 l-82 109 -11 96 c-5 53 -23 146
-38 208 -53 210 -147 371 -319 544 -168 169 -286 236 -736 419 -137 56 -288
119 -334 141 -46 21 -85 39 -86 39 -5 0 126 -491 150 -557 98 -280 302 -531
555 -683 157 -94 390 -170 590 -191 58 -6 114 -12 126 -15 35 -6 306 -383 486
-674 137 -222 368 -654 356 -665 -7 -8 -162 55 -268 108 l-84 42 -17 85 c-75
381 -240 575 -568 671 -35 10 -157 34 -270 54 -113 19 -237 44 -276 54 -38 11
-71 18 -72 17 -2 -2 14 -27 35 -57 64 -91 101 -162 153 -301 59 -155 88 -209
164 -300 110 -134 260 -232 425 -278 89 -25 272 -37 348 -22 l54 10 151 -73
c84 -40 184 -84 223 -99 42 -16 74 -34 77 -44 3 -9 31 -75 62 -147 165 -375
325 -863 434 -1316 49 -202 103 -461 98 -466 -3 -2 -12 8 -21 21 -9 14 -50 66
-91 116 l-76 91 -10 122 c-30 373 -125 549 -393 729 -121 80 -185 111 -436
211 -118 47 -245 99 -282 116 -38 16 -68 28 -68 25 0 -3 17 -36 39 -72 72
-124 107 -220 196 -526 25 -88 60 -192 76 -233 68 -162 192 -307 319 -370 113
-57 205 -76 375 -77 83 -1 155 -5 162 -9 17 -11 153 -182 202 -255 41 -61 44
-72 67 -210 50 -311 98 -751 124 -1132 13 -186 26 -870 17 -870 -4 0 -33 35
-64 77 l-57 78 -1 320 c-1 338 -8 409 -56 570 -60 199 -232 439 -402 558 -79
56 -286 181 -291 176 -2 -2 -11 -111 -20 -243 -50 -680 9 -969 239 -1184 88
-82 230 -159 373 -201 l94 -28 89 -124 89 -124 0 -75 c0 -109 -18 -375 -41
-610 -34 -343 -81 -647 -156 -997 -31 -149 -38 -171 -51 -160 -25 20 -65 89
-92 160 l-27 68 24 100 c54 229 67 342 67 559 0 179 -3 215 -22 284 -47 168
-146 339 -293 506 -117 131 -170 197 -208 253 -18 27 -35 46 -39 43 -7 -7
-103 -382 -137 -532 -56 -251 -56 -456 1 -651 59 -204 139 -300 352 -426 73
-43 143 -88 156 -100 13 -12 33 -51 46 -87 28 -82 81 -182 127 -238 l36 -44
-33 -126 c-114 -446 -290 -946 -487 -1380 -118 -262 -174 -368 -183 -351 -17
30 -50 166 -56 229 l-6 66 54 57 c195 202 319 541 305 832 -7 133 -37 253
-130 510 -96 267 -122 360 -142 510 l-7 50 -35 -40 c-198 -224 -320 -391 -393
-535 -163 -325 -180 -683 -46 -992 68 -156 161 -283 263 -357 60 -43 61 -46
68 -100 9 -76 43 -225 67 -287 l19 -51 -72 -129 c-328 -587 -773 -1188 -1223
-1652 -66 -67 -120 -121 -121 -120 -4 5 13 249 21 296 6 40 12 46 78 89 198
127 381 384 462 648 27 85 28 100 28 285 0 156 -5 233 -26 385 -33 235 -39
335 -30 447 4 49 6 88 4 88 -9 0 -281 -210 -354 -274 -243 -213 -404 -488
-448 -763 -18 -107 -13 -304 9 -408 32 -157 105 -310 187 -395 l33 -35 -14
-90 c-9 -50 -18 -150 -22 -223 l-6 -133 -126 -118 c-472 -443 -1003 -834
-1567 -1154 -82 -46 -160 -90 -174 -97 l-25 -13 28 34 c15 19 60 83 101 143
l74 109 88 22 c219 56 367 135 499 269 146 147 194 260 220 526 35 349 82 519
200 722 25 43 45 80 45 82 0 9 -406 -132 -506 -176 -363 -160 -554 -408 -636
-823 -31 -160 -31 -386 1 -509 l23 -89 -75 -111 c-42 -61 -108 -150 -147 -198
l-72 -86 -202 -95 c-366 -173 -728 -319 -1046 -421 -80 -26 -158 -51 -173 -56
l-28 -9 18 23 c10 13 49 65 87 115 56 74 74 91 100 95 17 2 72 9 121 16 165
21 366 104 507 210 95 72 215 204 269 296 52 88 106 211 150 342 29 83 139
491 139 513 0 5 -21 -4 -46 -22 -65 -44 -166 -89 -339 -148 -197 -68 -482
-210 -599 -297 -146 -111 -257 -274 -301 -444 -25 -97 -30 -279 -11 -370 l16
-74 -101 -134 c-56 -73 -111 -139 -123 -146 -17 -11 -259 -79 -398 -112 -21
-4 -48 6 -120 44 -200 108 -410 186 -602 224 -117 23 -359 31 -441 14 l-40 -8
26 29 c79 84 103 159 118 354 11 146 35 232 85 306 14 21 26 41 26 44 0 4 -26
0 -57 -7 -97 -23 -201 -18 -341 17 -170 42 -241 39 -352 -18 l-77 -39 -21 70
c-28 92 -69 146 -189 246 -54 45 -116 105 -137 134 -45 59 -91 155 -79 167 4
4 37 19 73 34 107 44 238 115 301 162 l59 45 91 -21 c213 -49 394 -14 517 99
30 28 52 40 73 40 39 0 141 35 187 64 44 27 104 92 127 135 15 31 16 31 98 31
138 0 234 37 328 127 l57 54 59 -17 c117 -34 273 -19 329 33 39 36 54 24 54
-45 0 -79 8 -116 32 -141 17 -19 30 -21 153 -21 l135 0 0 -210 0 -210 263 1
262 1 152 166 c185 204 230 258 446 537 268 346 426 540 544 670 309 339 644
605 1068 850 128 74 422 222 458 230 15 4 27 13 27 20 0 11 -298 14 -1625 17
-1065 2 -1627 6 -1634 13 -14 14 -38 253 -50 495 -6 113 -18 493 -26 845 -95
3991 -94 3946 -120 4065 -48 216 -191 381 -391 451 -140 49 -293 61 -447 34
-114 -20 -159 -39 -349 -146 -203 -116 -249 -133 -348 -127 -92 6 -126 22
-206 102 -220 220 -330 674 -263 1083 24 147 23 310 -3 381 -25 67 -65 117
-116 145 -87 47 -452 137 -555 137 -66 0 -135 -40 -169 -99 -21 -36 -25 -39
-53 -33 -16 4 -77 7 -135 7 -98 0 -109 -2 -159 -30 -65 -36 -122 -104 -150
-181 -23 -59 -38 -190 -27 -220 6 -15 11 -12 37 19 34 42 98 82 147 92 31 6
33 5 51 -38 24 -55 57 -81 127 -102 65 -19 79 -38 100 -136 24 -113 14 -398
-19 -539 -50 -211 -134 -379 -246 -491 -75 -75 -129 -99 -223 -99 -81 0 -142
24 -326 129 -190 107 -235 126 -349 146 -390 68 -716 -99 -821 -422 -33 -99
-41 -221 -57 -833 -8 -316 -17 -665 -20 -775 -3 -110 -19 -767 -35 -1460 -37
-1596 -39 -1658 -51 -1905 -12 -240 -36 -481 -50 -495 -7 -7 -569 -11 -1634
-13 -1391 -3 -1625 -6 -1625 -18 0 -8 8 -14 18 -14 23 0 332 -157 492 -250
319 -186 592 -389 831 -618 207 -197 373 -392 744 -872 87 -113 200 -255 251
-316 83 -99 134 -156 316 -351 l49 -53 260 0 260 0 -1 143 c-1 78 -1 172 0
210 l0 67 135 0 c179 0 179 0 188 200 l4 75 240 3 240 2 5 -44 c16 -137 185
-266 333 -254 49 4 51 3 47 -18 -12 -62 95 -186 204 -240 44 -22 76 -29 140
-32 l83 -4 11 -34 c15 -44 79 -100 158 -137 90 -42 200 -49 300 -18 38 11 80
30 94 41 l25 19 18 -44 c45 -119 225 -178 381 -125 32 11 62 20 66 20 15 0
-36 -99 -80 -157 -26 -34 -91 -99 -145 -144 -110 -91 -158 -155 -183 -245
l-16 -61 -78 40 c-111 57 -182 60 -352 18 -140 -35 -244 -40 -340 -17 -32 7
-58 11 -58 8 0 -3 13 -26 28 -51 53 -86 72 -154 83 -300 14 -194 39 -269 118
-354 l26 -29 -40 8 c-71 15 -323 9 -420 -10 -201 -38 -408 -113 -613 -223 -80
-43 -109 -54 -130 -49 -139 33 -381 101 -398 112 -12 7 -67 73 -123 147 l-101
133 15 69 c34 160 8 370 -64 519 -70 144 -166 251 -312 346 -109 71 -376 195
-559 260 -184 65 -247 94 -317 142 -24 16 -43 24 -43 19 0 -22 110 -430 139
-513 44 -131 98 -254 150 -342 54 -92 174 -224 269 -296 141 -106 342 -189
507 -210 50 -7 104 -14 121 -16 26 -4 44 -21 100 -95 38 -50 77 -101 87 -114
16 -22 9 -20 -125 22 -356 113 -707 253 -1104 440 l-202 95 -72 86 c-39 48
-105 137 -147 198 l-75 111 23 89 c19 74 23 115 23 239 -1 381 -132 716 -355
907 -75 64 -214 150 -307 189 -88 37 -495 179 -500 175 -1 -2 24 -51 57 -110
105 -190 153 -369 186 -696 26 -266 74 -379 220 -526 132 -134 280 -213 499
-269 l88 -22 74 -109 c41 -60 86 -124 101 -143 l28 -34 -35 18 c-19 10 -98 54
-174 98 -570 327 -1090 710 -1562 1152 l-121 114 -6 133 c-4 73 -13 173 -22
223 l-14 90 33 35 c107 111 188 317 204 517 32 392 -128 761 -454 1047 -76 67
-346 276 -356 276 -2 0 0 -39 4 -87 9 -113 3 -213 -30 -448 -21 -152 -26 -229
-26 -385 0 -185 1 -199 27 -285 83 -265 265 -521 463 -648 66 -43 72 -49 78
-89 8 -47 25 -291 21 -296 -1 -1 -55 53 -121 120 -450 464 -895 1065 -1223
1652 l-72 129 21 60 c27 76 57 205 65 278 7 54 8 57 68 100 102 74 195 201
263 357 134 309 117 667 -46 992 -73 144 -195 311 -393 535 l-35 40 -6 -50
c-15 -114 -59 -273 -136 -489 -107 -302 -131 -394 -137 -531 -13 -292 110
-630 305 -832 l54 -57 -6 -66 c-6 -63 -39 -199 -56 -229 -21 -38 -303 597
-455 1024 -66 187 -172 533 -216 710 l-31 123 41 52 c44 56 110 185 132 259
15 51 32 65 204 166 74 43 142 93 180 130 108 107 175 275 197 496 17 171 -2
311 -95 677 -41 161 -77 295 -80 298 -3 3 -20 -16 -38 -43 -38 -56 -91 -122
-208 -253 -148 -168 -248 -341 -292 -506 -48 -180 -34 -491 35 -802 l32 -143
-26 -67 c-27 -70 -67 -139 -92 -159 -13 -11 -20 11 -52 160 -72 338 -122 658
-156 998 -22 232 -40 499 -40 609 l0 75 89 124 89 124 89 27 c320 94 516 280
587 555 51 199 59 421 30 829 -9 133 -18 243 -20 245 -5 5 -250 -145 -312
-191 -160 -119 -324 -353 -381 -543 -48 -162 -55 -232 -56 -570 l-1 -320 -63
-85 -63 -85 6 365 c8 577 56 1131 140 1652 23 138 26 149 67 210 49 73 185
244 202 255 7 4 80 8 162 9 170 1 257 19 373 76 128 63 252 208 321 371 16 41
51 145 76 233 89 307 129 414 205 543 27 45 29 53 14 48 -11 -3 -146 -57 -301
-120 -356 -144 -486 -217 -635 -355 -130 -121 -206 -323 -228 -603 l-9 -119
-58 -67 c-32 -38 -74 -89 -92 -115 -19 -27 -36 -46 -38 -44 -5 4 49 262 93
446 106 444 248 885 407 1262 111 263 87 230 207 278 58 24 157 69 220 100
116 58 116 58 170 48 78 -15 261 -3 350 22 166 46 314 143 425 278 76 91 105
145 164 301 52 138 90 212 146 291 17 25 35 50 38 56 5 8 -19 5 -66 -7 -39
-10 -153 -33 -252 -49 -99 -17 -217 -40 -263 -51 -347 -86 -523 -284 -602
-678 l-17 -86 -49 -27 c-68 -38 -295 -131 -302 -124 -7 8 138 291 255 495 185
323 541 836 587 846 12 2 55 7 96 10 218 19 478 103 646 210 238 151 433 398
529 668 32 90 154 557 146 557 -3 -1 -19 -8 -36 -17z m5607 -3980 c24 -21 23
-58 -2 -83 -26 -26 -48 -25 -77 2 -27 25 -29 45 -7 76 18 26 60 29 86 5z m183
-2134 c494 -68 877 -425 992 -922 12 -52 17 -118 16 -242 0 -150 -3 -181 -25
-266 -64 -236 -159 -403 -323 -565 -305 -300 -755 -408 -1165 -278 -328 103
-606 357 -730 669 -180 447 -82 934 255 1270 260 261 622 384 980 334z m-1401
-3570 c-133 -468 -244 -852 -246 -854 -1 -1 -30 -10 -63 -20 -120 -34 -190
-86 -224 -164 -17 -41 -20 -64 -17 -147 4 -113 8 -128 47 -169 l29 -31 -138
-32 c-135 -31 -354 -77 -401 -84 -17 -2 -34 7 -57 30 -37 37 -59 39 -135 13
-70 -24 -159 -37 -159 -23 0 6 24 24 53 41 194 112 332 314 373 545 8 44 15
80 17 81 135 76 205 172 230 319 10 57 14 65 44 81 19 10 52 38 74 62 62 68
92 143 114 284 4 29 12 39 36 49 81 34 175 175 201 302 10 48 16 58 37 63 39
9 126 70 154 107 43 56 75 130 92 213 9 44 17 80 18 81 1 1 25 13 52 27 28 14
64 37 80 51 17 14 30 25 31 26 0 0 -108 -383 -242 -851z m2366 771 c25 -12 46
-23 47 -24 1 -1 9 -37 18 -81 17 -83 49 -157 92 -213 28 -37 115 -98 154 -107
21 -5 27 -15 37 -63 26 -127 120 -268 201 -302 26 -10 31 -19 36 -59 9 -65 33
-148 57 -194 25 -51 89 -119 131 -142 30 -16 34 -24 44 -81 22 -128 114 -267
201 -303 28 -12 32 -19 42 -84 39 -235 182 -445 378 -558 28 -17 52 -35 52
-41 0 -14 -89 -1 -159 23 -76 26 -98 24 -136 -14 l-33 -33 -73 13 c-41 8 -164
34 -274 58 -111 25 -205 45 -210 45 -5 0 5 15 22 33 41 43 45 57 49 171 3 83
0 106 -17 147 -34 78 -104 130 -224 164 -33 10 -62 19 -63 20 -2 2 -113 386
-246 854 l-243 850 36 -28 c20 -16 56 -38 81 -51z m-1830 -1789 c0 -5 -6 -14
-14 -20 -8 -6 -16 -20 -19 -31 -4 -16 -2 -18 11 -11 10 5 30 23 46 40 28 29
34 31 106 31 67 0 175 -19 202 -37 17 -10 -530 -199 -553 -191 -14 5 29 68 47
68 28 0 95 44 110 72 8 15 14 38 14 51 0 13 3 27 7 30 9 10 43 8 43 -2z m1470
-31 c4 -19 11 -44 18 -56 10 -19 71 -55 114 -68 25 -7 48 -58 56 -124 l7 -57
46 46 c25 25 54 66 64 92 10 27 26 49 37 53 11 3 38 22 59 41 35 31 43 35 76
28 54 -9 140 -50 179 -85 19 -16 54 -40 77 -51 23 -12 80 -59 127 -105 l85
-83 110 -26 c61 -15 193 -43 293 -64 132 -28 189 -44 203 -58 13 -12 23 -43
29 -84 11 -78 30 -593 30 -823 l0 -167 -78 59 c-103 79 -224 156 -347 223 -71
38 -120 74 -170 123 -38 38 -93 88 -121 112 -49 39 -51 42 -30 52 45 21 130
92 167 142 21 29 39 55 39 60 0 4 -33 -25 -73 -64 -40 -39 -98 -84 -128 -100
l-56 -30 -124 55 c-174 76 -251 136 -315 245 l-26 44 41 45 c23 25 41 47 41
50 0 3 -21 -11 -46 -30 -25 -19 -57 -38 -70 -41 -49 -13 -312 42 -408 85 -123
54 -168 161 -96 226 27 24 53 68 28 48 -8 -7 -62 -34 -119 -59 l-104 -46 -170
-7 c-185 -7 -173 -4 -305 -87 -60 -38 -118 -47 -105 -16 4 9 10 31 13 47 4 30
4 29 -26 -12 -17 -22 -34 -43 -39 -46 -4 -3 -37 0 -72 5 -87 13 -169 -3 -305
-59 -93 -39 -122 -46 -177 -47 -113 0 -169 31 -193 110 -6 20 -2 21 76 27 127
9 318 64 370 107 l23 18 -34 49 c-19 26 -52 70 -74 96 -22 26 -38 49 -36 51 6
6 266 96 276 96 5 0 28 -35 52 -77 37 -69 42 -74 38 -42 -3 20 -15 56 -26 80
-25 51 -26 59 -7 59 24 0 75 -50 107 -104 19 -31 29 -41 25 -26 -3 14 -6 30
-6 36 0 6 -11 28 -25 48 l-25 37 47 -7 c27 -4 52 -12 56 -18 4 -6 5 -34 2 -63
l-6 -52 29 10 c17 6 38 19 47 29 23 26 44 87 45 133 l0 37 50 0 50 0 0 -42 c0
-45 27 -115 51 -135 8 -6 27 -17 43 -23 l28 -10 -6 45 c-11 69 -3 81 56 89 28
4 77 20 110 37 95 48 149 58 293 56 l130 -2 5 -35z m-1926 -69 c16 -16 41 -35
55 -41 19 -7 34 -27 49 -61 l21 -50 -22 -8 c-12 -5 -38 -12 -57 -16 -90 -19
-133 -76 -111 -149 7 -22 17 -70 22 -106 20 -128 82 -200 234 -271 207 -97
349 -92 720 27 274 88 475 132 554 121 54 -7 137 -66 269 -190 61 -58 132
-119 157 -137 66 -46 197 -105 285 -129 115 -32 335 -187 594 -419 67 -59 153
-134 191 -167 39 -32 133 -121 210 -196 77 -75 160 -148 185 -164 102 -62 144
-128 120 -186 -12 -27 -22 -34 -45 -29 -5 1 -34 6 -65 11 -30 6 -70 15 -88 20
l-33 11 38 34 38 34 -34 -12 c-28 -9 -43 -8 -85 7 -70 25 -146 57 -146 62 0 2
14 16 30 30 31 26 60 72 60 95 0 7 -7 3 -15 -9 -9 -12 -29 -31 -45 -43 -28
-20 -31 -20 -87 -4 -32 9 -62 19 -66 21 -4 3 10 17 32 33 38 28 71 66 71 82 0
5 -24 -7 -52 -27 -98 -65 -169 -45 -283 80 l-76 84 57 38 c39 26 52 39 40 41
-9 2 -32 -5 -50 -16 -30 -18 -37 -18 -54 -6 -11 7 -46 23 -78 35 -51 19 -56
24 -40 33 10 6 31 21 45 34 l26 23 -41 -6 c-39 -6 -45 -3 -189 104 -192 142
-237 164 -339 169 -44 2 -97 -1 -120 -8 -54 -15 -176 -71 -176 -80 0 -19 371
-301 525 -399 172 -109 656 -401 743 -448 l83 -46 -38 -39 c-63 -66 -81 -71
-211 -66 -62 3 -117 9 -122 14 -5 5 8 36 31 72 22 35 39 66 36 68 -2 2 -24
-13 -48 -34 -39 -34 -122 -72 -133 -61 -3 2 4 29 14 59 29 83 25 102 -9 48
l-29 -46 -79 -4 c-43 -3 -89 -1 -102 4 -22 8 -23 12 -19 71 4 45 3 55 -4 36
-8 -24 -32 -38 -63 -39 -6 0 -9 26 -8 62 1 35 -1 52 -4 38 -2 -14 -8 -29 -13
-33 -13 -14 -136 71 -301 208 -245 204 -317 239 -484 237 -55 0 -115 -4 -132
-9 -32 -8 -30 -10 195 -161 125 -84 286 -195 357 -247 228 -167 408 -268 589
-331 58 -20 106 -40 106 -44 0 -18 -48 -76 -72 -88 -36 -17 -144 -29 -191 -21
-72 12 -102 65 -77 136 10 27 8 26 -22 -9 -28 -31 -42 -38 -85 -44 -29 -4 -53
-4 -53 0 0 4 7 20 15 36 9 17 20 42 25 57 l10 28 -23 -26 c-13 -14 -37 -29
-53 -33 -59 -14 -84 -18 -84 -12 0 3 11 31 25 62 30 68 31 74 6 43 -10 -13
-40 -30 -66 -38 -45 -13 -51 -13 -89 8 -70 37 -165 114 -306 247 -154 145
-236 203 -341 238 l-73 25 -65 -61 c-36 -34 -99 -83 -140 -110 l-76 -50 -6 69
c-21 269 -313 300 -585 61 l-34 -30 10 28 c17 43 15 135 -3 169 -30 58 -78 90
-156 105 -105 20 -221 -21 -378 -134 l-88 -63 -138 -7 -138 -8 -72 64 c-73 64
-73 61 -4 -24 l39 -48 -40 0 c-92 0 -229 25 -389 72 l-73 21 0 276 c0 318 17
826 30 921 12 83 33 103 127 119 67 12 412 86 445 97 15 4 13 -5 -11 -58 -16
-35 -32 -83 -35 -108 -6 -45 -6 -45 18 18 13 34 35 80 50 102 46 70 199 221
248 246 26 13 62 37 80 53 39 33 87 59 143 77 61 19 79 17 109 -15z m538 -219
c47 -61 48 -59 -42 -93 -100 -38 -227 -60 -345 -60 -119 0 -158 9 -174 40 -33
60 1 100 109 126 68 17 70 17 99 -4 l30 -21 3 31 c3 31 5 32 113 65 l110 32
28 -31 c15 -18 47 -56 69 -85z m-1007 37 l-50 -50 -3 37 c-5 56 2 64 55 64
l47 0 -49 -51z m3321 37 c3 -8 4 -30 2 -50 l-3 -37 -50 50 -49 51 47 0 c32 0
49 -5 53 -14z m-4036 -216 c5 0 14 -9 20 -21 9 -16 8 -24 -4 -38 -37 -41 -45
-86 -57 -342 -7 -144 -13 -536 -13 -909 -1 -512 -4 -660 -14 -677 -12 -22 -18
-23 -144 -23 l-131 0 7 123 c4 67 14 172 22 232 11 78 18 265 24 650 6 398 12
569 24 650 9 61 16 156 16 211 l0 102 53 7 c28 4 77 15 107 25 30 10 61 16 68
14 8 -2 18 -4 22 -4z m4829 -21 c41 -10 85 -19 98 -19 23 0 23 -2 23 -102 0
-57 7 -152 16 -213 11 -80 18 -256 24 -650 6 -383 13 -572 24 -650 8 -60 18
-165 22 -232 l7 -123 -131 0 c-126 0 -132 1 -144 23 -10 17 -13 164 -14 672 0
371 -6 761 -13 910 -13 260 -20 305 -57 346 -26 29 15 77 56 63 8 -3 48 -14
89 -25z m-3510 -1279 c55 -28 75 -64 75 -132 -1 -88 -46 -170 -137 -251 -147
-130 -173 -147 -230 -147 -84 0 -120 15 -173 72 -27 29 -66 68 -87 87 -35 31
-37 32 -28 9 5 -14 16 -49 25 -79 l16 -54 -38 41 c-20 22 -48 49 -61 60 l-24
19 20 -40 c43 -86 38 -105 -27 -105 -44 0 -76 19 -96 56 -16 29 -16 36 -4 60
25 45 332 293 449 362 25 15 75 37 111 50 76 26 148 24 209 -8z m564 -104 c39
-16 82 -61 96 -99 14 -36 14 -121 1 -168 -7 -26 -23 -45 -53 -65 -23 -16 -111
-95 -196 -176 -101 -97 -162 -148 -176 -148 -58 0 -125 32 -182 86 -59 57
-118 96 -163 109 l-25 7 21 -23 c28 -31 45 -65 55 -106 8 -40 0 -42 -32 -7
-13 14 -37 33 -54 41 -29 15 -30 15 -13 -4 28 -30 33 -78 13 -109 -35 -54
-166 -87 -240 -61 -90 32 -48 92 210 300 83 67 191 160 240 207 136 129 220
188 308 215 56 18 150 18 190 1z m406 -318 c66 -33 84 -72 78 -168 l-5 -75
-114 -108 c-62 -60 -149 -141 -192 -179 l-79 -71 -59 6 c-32 3 -67 11 -77 19
-10 7 -43 31 -72 54 -78 58 -81 59 -54 12 32 -56 31 -68 -2 -36 -16 14 -40 33
-55 43 l-27 17 14 -30 c17 -33 12 -59 -13 -66 -10 -3 -67 -12 -127 -21 -61 -8
-126 -20 -145 -25 -18 -5 -35 -8 -37 -7 -8 9 43 60 185 186 86 76 213 194 282
262 96 95 142 133 197 162 119 62 212 70 302 25z m296 -182 c122 -84 161 -105
312 -174 173 -80 345 -147 427 -168 65 -16 66 -17 49 -36 -34 -37 -71 -50
-127 -43 -93 12 -93 12 -71 70 8 19 6 18 -17 -2 -17 -16 -37 -23 -65 -23 -70
0 -76 5 -52 53 l21 42 -30 -29 c-28 -26 -34 -28 -82 -21 -55 8 -55 7 -34 72 5
15 2 14 -14 -5 -18 -19 -82 -43 -82 -29 0 2 7 21 16 42 20 48 12 70 -10 28
-19 -39 -21 -39 -63 -13 -39 23 -59 53 -67 101 -11 62 -87 119 -160 119 -35 0
-54 15 -80 67 -29 57 -32 59 129 -51z m26 -79 c85 -57 69 -199 -42 -356 -55
-79 -67 -87 -150 -99 -70 -11 -137 5 -226 52 -59 32 -82 34 -48 6 30 -25 14
-27 -32 -4 -26 12 -49 21 -50 20 -2 -1 6 -20 17 -41 11 -22 20 -44 20 -50 0
-22 -111 -115 -137 -115 -20 0 -53 61 -53 97 0 29 23 53 233 249 157 147 248
224 282 240 67 32 140 32 186 1z m-216 -818 c27 -40 79 -94 155 -158 100 -84
120 -106 150 -165 35 -68 35 -71 35 -196 l0 -127 -42 -84 c-43 -87 -157 -233
-191 -243 -11 -4 -32 -1 -48 5 -16 6 -63 11 -104 11 -41 0 -88 -5 -104 -11
-16 -6 -37 -9 -48 -5 -34 10 -148 156 -191 243 l-42 84 0 127 c0 125 0 128 35
196 30 59 50 81 150 165 77 64 128 117 155 158 22 33 42 60 45 60 3 0 23 -27
45 -60z m-593 -437 c96 -47 104 -58 111 -144 9 -123 66 -237 182 -365 l56 -62
-45 -41 c-24 -22 -60 -71 -80 -109 l-36 -68 -52 -6 c-284 -35 -558 75 -651
259 -30 60 -35 82 -46 245 -7 90 -17 147 -34 198 l-25 71 92 0 c69 0 118 8
201 30 147 39 236 37 327 -8z m1418 8 c88 -22 142 -30 208 -30 l88 0 -24 -72
c-16 -49 -27 -111 -33 -202 -11 -153 -26 -214 -70 -280 -107 -162 -385 -256
-638 -218 -43 7 -46 9 -78 74 -19 37 -54 85 -80 108 l-45 42 40 42 c130 136
202 280 202 408 0 52 9 65 76 104 105 62 183 67 354 24z m-1228 -918 c6 -87
34 -149 98 -216 l51 -54 -41 -67 c-90 -147 -123 -253 -122 -400 0 -118 -7
-134 -101 -222 -135 -126 -360 -203 -593 -203 -41 0 -74 4 -74 8 0 5 10 17 21
28 43 37 60 99 75 261 16 178 40 307 83 443 78 247 247 405 506 475 91 25 92
24 97 -53z m861 39 c348 -120 490 -358 541 -907 15 -159 33 -221 75 -258 39
-35 27 -39 -101 -33 -275 14 -500 115 -619 280 -26 35 -27 44 -27 135 2 146
-35 268 -122 405 l-42 68 51 54 c65 68 93 130 99 218 l5 69 44 -7 c24 -3 67
-15 96 -24z m-503 -365 c57 0 97 6 122 16 l38 17 29 -42 c137 -200 172 -424
90 -577 -17 -32 -73 -104 -124 -159 -51 -55 -105 -120 -121 -145 -16 -25 -32
-46 -36 -46 -3 0 -18 20 -32 44 -14 24 -68 90 -120 146 -52 56 -108 127 -125
159 -82 155 -48 377 90 578 l29 42 38 -17 c25 -10 65 -16 122 -16z"/>
<path d="M10570 10752 c-8 -42 -9 -69 -1 -97 8 -32 81 -533 81 -558 0 -4 11
-7 25 -7 32 0 32 1 -4 260 -16 112 -27 209 -24 213 3 5 16 -4 29 -19 22 -27
23 -28 24 -7 0 17 -100 257 -114 270 -2 2 -9 -23 -16 -55z"/>
<path d="M9960 10793 c-23 -8 -40 -34 -40 -60 0 -19 5 -23 33 -23 17 0 38 -4
45 -9 17 -10 2 -23 -65 -56 -39 -20 -43 -24 -23 -24 31 -1 129 44 147 67 7 9
20 29 28 44 15 27 15 28 -18 42 -44 18 -88 26 -107 19z"/>
<path d="M10352 10770 c-141 -50 -334 -217 -390 -337 -37 -79 -38 -169 -3
-207 44 -46 78 -49 378 -30 l275 18 -7 56 c-4 30 -8 56 -8 57 -1 0 -118 -8
-260 -18 -283 -21 -320 -18 -356 27 -21 26 -21 26 -1 54 66 93 243 223 363
268 99 37 139 25 116 -34 -12 -34 -3 -44 16 -18 48 62 69 146 43 172 -18 18
-106 14 -166 -8z"/>
<path d="M10797 10758 c-35 -46 -43 -81 -22 -102 16 -16 16 -18 0 -36 -10 -11
-15 -23 -11 -27 18 -18 146 83 146 114 0 12 -4 11 -22 -1 -28 -20 -72 -21 -87
-2 -17 21 23 43 45 26 11 -10 15 -9 20 3 21 56 -31 75 -69 25z"/>
<path d="M9690 10678 c-18 -30 -49 -142 -51 -185 0 -10 -11 5 -24 32 -40 88
-86 109 -114 51 -9 -20 -11 -38 -4 -60 7 -25 14 -32 41 -34 18 -2 32 1 32 7 0
28 20 6 41 -44 12 -30 25 -52 29 -50 4 3 11 33 14 67 12 100 41 153 71 128 28
-23 48 58 25 101 -16 28 -38 23 -60 -13z"/>
<path d="M10931 10659 c-10 -48 -9 -72 10 -175 11 -65 23 -122 26 -126 2 -5
15 -8 29 -8 20 0 24 4 20 23 -19 95 -12 116 23 71 l21 -27 -1 29 c0 16 -26 83
-58 149 l-58 120 -12 -56z"/>
<path d="M10357 10603 c-59 -62 -102 -201 -73 -238 19 -26 44 -13 69 36 17 34
17 34 -5 39 -44 11 -32 84 28 168 22 30 13 28 -19 -5z"/>
<path d="M9357 10506 c-79 -78 -147 -230 -147 -326 0 -51 3 -61 26 -79 26 -20
26 -21 11 -59 -21 -53 -47 -182 -47 -235 0 -149 98 -248 205 -207 41 15 123
104 220 235 92 126 139 180 167 196 14 8 32 -4 88 -55 50 -46 82 -67 107 -72
61 -11 276 4 498 36 116 17 278 33 362 37 l152 6 -5 31 c-3 17 -8 42 -10 55
l-5 24 -117 -7 c-64 -4 -223 -20 -352 -37 -284 -36 -459 -46 -516 -30 -29 8
-58 28 -95 66 -30 31 -63 58 -74 61 -54 14 -131 -52 -237 -200 -82 -114 -170
-211 -210 -232 -65 -34 -129 2 -144 82 -14 73 28 279 65 318 22 24 65 115 58
123 -3 2 -14 0 -24 -5 -55 -30 -72 62 -29 153 12 28 40 72 60 98 45 59 41 71
-7 23z"/>
<path d="M9757 10386 c-99 -43 -202 -104 -294 -172 -73 -55 -95 -79 -108 -122
-6 -21 1 -18 47 20 78 64 187 130 319 192 86 41 118 62 127 81 7 14 12 28 12
30 0 11 -30 3 -103 -29z"/>
<path d="M10719 10333 c-19 -3 -26 -9 -23 -21 1 -9 6 -34 9 -54 l6 -38 150 0
c159 0 200 -9 247 -53 22 -20 52 -68 52 -82 0 -4 -19 -5 -42 -4 -47 4 -46 7
-32 -78 9 -60 57 -32 100 60 48 104 23 190 -68 235 -65 33 -289 52 -399 35z"/>
<path d="M10986 10178 c23 -136 96 -688 102 -768 8 -97 9 -103 21 -75 30 72
25 186 -23 525 -26 178 -48 325 -49 326 -1 1 -14 5 -28 9 -24 6 -26 4 -23 -17z"/>
<path d="M9426 10049 c-59 -69 -98 -188 -76 -228 18 -34 47 -26 70 19 25 49
25 50 -2 47 -21 -2 -23 2 -22 46 0 36 8 57 33 93 38 54 36 69 -3 23z"/>
<path d="M11210 9983 c-61 -69 -101 -192 -76 -232 14 -22 46 -11 66 22 25 40
25 57 1 57 -43 0 -33 74 20 147 37 53 32 56 -11 6z"/>
<path d="M10680 9925 c0 -13 16 -137 35 -275 19 -138 35 -286 35 -330 0 -78
11 -103 24 -57 4 12 10 69 13 127 4 85 -1 147 -26 324 -17 120 -31 223 -31
227 0 5 -11 9 -25 9 -20 0 -25 -5 -25 -25z"/>
<path d="M9775 9894 l-27 -36 33 -34 c18 -19 36 -34 40 -34 5 0 20 16 35 35
l27 36 -33 34 c-19 19 -37 35 -41 35 -4 0 -19 -16 -34 -36z"/>
<path d="M10927 9898 c-46 -61 -79 -140 -81 -190 -1 -47 14 -72 38 -65 14 4
43 48 51 75 5 19 3 22 -17 20 -17 -2 -24 3 -26 21 -5 36 5 64 42 120 38 56 32
71 -7 19z"/>
<path d="M10486 9892 c-26 -42 6 -208 69 -365 l44 -109 -24 -24 c-47 -47 -124
-25 -164 46 -22 40 -61 238 -61 317 0 35 -27 113 -40 113 -4 0 -12 -17 -18
-38 -10 -31 -8 -61 8 -158 27 -166 26 -200 -9 -255 -49 -78 -130 -101 -181
-51 -39 39 -44 88 -26 267 8 83 12 152 10 154 -2 3 -15 -6 -28 -18 -36 -33
-75 -129 -113 -275 -33 -125 -54 -176 -72 -176 -15 0 -40 36 -57 80 -10 29
-18 91 -22 175 l-5 130 -32 32 c-37 37 -75 44 -75 14 0 -10 -7 -35 -16 -56
-14 -34 -14 -39 1 -55 15 -17 13 -20 -40 -45 -46 -23 -75 -29 -163 -34 -100
-7 -104 -8 -58 -15 101 -18 237 6 279 48 12 12 26 15 51 11 l34 -7 4 -117 c3
-103 7 -124 32 -174 19 -40 35 -59 52 -63 57 -15 77 22 108 199 13 73 33 153
44 177 l21 45 -5 -145 c-7 -165 2 -218 46 -262 23 -23 37 -28 75 -28 94 0 155
51 176 150 l12 54 27 -60 c38 -83 69 -109 130 -109 125 0 160 139 86 345 -55
154 -53 144 -27 131 16 -9 21 -9 21 1 0 21 -87 161 -94 150z m-770 -207 c-3
-9 -11 -13 -16 -10 -8 5 -7 11 1 21 14 18 24 11 15 -11z m54 -37 c0 -4 -7 -5
-15 -2 -8 4 -15 16 -15 28 1 21 1 21 15 2 8 -11 15 -23 15 -28z"/>
<path d="M10958 9573 c-41 -43 -81 -132 -86 -190 -4 -44 -1 -53 16 -62 24 -13
47 5 63 46 13 35 11 42 -10 36 -39 -10 -32 73 12 138 46 69 47 77 5 32z"/>
<path d="M9675 9519 c-58 -69 -96 -181 -77 -225 18 -39 50 -31 72 19 l19 42
-24 3 c-21 3 -25 9 -25 38 0 33 21 83 56 132 24 33 10 27 -21 -9z"/>
<path d="M7637 4369 c-24 -14 -47 -62 -47 -99 0 -95 98 -144 161 -81 25 25 29
37 29 81 0 44 -4 56 -29 81 -31 31 -79 38 -114 18z m93 -41 c28 -31 26 -83 -5
-113 -13 -14 -31 -25 -40 -25 -26 0 -65 46 -65 78 0 38 35 82 65 82 13 0 33
-10 45 -22z"/>
<path d="M12729 4351 c-25 -25 -29 -37 -29 -81 0 -44 4 -56 29 -81 85 -84 203
31 146 141 -30 59 -98 68 -146 21z m110 -27 c12 -15 21 -40 21 -56 0 -32 -39
-78 -65 -78 -29 0 -65 46 -65 83 0 69 69 101 109 51z"/>
<path d="M9025 4788 c-33 -12 -105 -59 -123 -80 -9 -11 8 -33 82 -109 l94 -96
33 14 c94 39 150 165 103 231 -33 48 -117 65 -189 40z m151 -53 c34 -46 1
-142 -59 -174 -25 -13 -28 -11 -97 59 -79 81 -80 87 -5 122 52 24 141 20 161
-7z"/>
<path d="M9600 4661 c-51 -16 -108 -51 -155 -93 l-48 -44 36 -23 c44 -27 112
-103 138 -153 11 -21 22 -38 25 -38 20 0 87 46 121 83 90 98 103 190 34 251
-24 21 -109 31 -151 17z m127 -46 c53 -37 26 -144 -55 -215 -25 -22 -48 -40
-52 -40 -4 0 -16 12 -26 28 -9 15 -44 54 -76 88 l-58 60 31 23 c85 63 190 88
236 56z"/>
<path d="M10007 4366 c-77 -21 -244 -150 -209 -163 52 -19 179 -140 194 -185
7 -19 47 2 98 52 156 151 101 344 -83 296z m115 -53 c24 -22 24 -93 -1 -141
-11 -20 -37 -54 -59 -75 l-39 -39 -64 65 c-35 35 -75 71 -89 81 l-25 16 30 25
c107 88 197 113 247 68z"/>
<path d="M10348 4110 c-15 -4 -43 -18 -62 -29 -37 -23 -116 -105 -116 -120 0
-5 24 -21 54 -34 29 -14 79 -41 111 -62 53 -33 60 -36 83 -23 56 30 107 138
95 201 -12 61 -86 91 -165 67z m120 -62 c17 -37 1 -97 -39 -143 l-31 -35 -27
19 c-14 10 -55 33 -90 50 l-63 32 28 30 c42 44 121 80 169 77 32 -2 42 -8 53
-30z"/>
<path d="M11268 17071 c-118 -139 -221 -406 -203 -528 7 -49 41 -93 73 -93 38
0 92 83 121 185 9 33 8 36 -7 30 -44 -19 -60 -17 -77 9 -40 61 2 215 95 353
27 40 50 76 50 78 0 15 -23 0 -52 -34z"/>
<path d="M14348 17104 c-5 -4 -8 -15 -8 -24 0 -23 -36 -54 -55 -47 -8 4 -15
18 -15 33 0 26 -1 25 -30 -14 -33 -45 -57 -52 -100 -27 -14 8 -30 14 -36 15
-7 0 -79 -66 -161 -148 -157 -156 -247 -229 -384 -312 l-84 -51 44 6 c73 12
182 53 238 90 65 43 146 128 215 224 69 97 74 100 137 72 57 -24 75 -20 108
25 19 26 20 26 46 9 25 -16 29 -16 50 -2 14 9 29 34 36 60 13 45 12 105 -1 91z"/>
<path d="M9659 17052 c-59 -65 -125 -183 -163 -290 -26 -74 -31 -101 -31 -183
0 -108 14 -139 65 -139 43 0 79 50 115 158 18 56 15 73 -9 53 -27 -22 -60 -9
-73 29 -26 75 7 189 97 329 29 45 50 84 48 87 -3 3 -25 -17 -49 -44z"/>
<path d="M11777 17067 c-2 -7 0 -20 5 -29 6 -12 2 -30 -12 -58 -29 -56 -44
-134 -31 -158 6 -11 24 -25 41 -32 16 -7 30 -17 30 -22 0 -21 -38 -63 -107
-119 -94 -78 -107 -102 -93 -176 6 -34 19 -67 33 -81 32 -35 120 -28 179 14
71 49 149 168 193 293 20 57 6 51 -33 -14 -39 -65 -131 -166 -175 -194 -45
-27 -99 -35 -142 -21 l-37 12 24 25 c13 14 51 47 85 74 62 50 103 113 103 158
0 21 3 22 43 16 63 -10 92 16 92 82 0 42 -6 57 -46 113 -55 76 -84 105 -121
119 -19 7 -28 7 -31 -2z m61 -129 c16 -16 15 -40 -2 -63 -13 -18 -15 -18 -40
-2 -32 21 -33 41 -4 61 27 19 31 19 46 4z m83 -102 c-33 -15 -51 0 -51 41 l0
37 35 -34 c34 -33 35 -35 16 -44z"/>
<path d="M8237 16989 c-54 -62 -127 -197 -162 -304 -36 -107 -40 -230 -9 -272
27 -36 59 -41 89 -13 26 24 71 120 82 170 6 30 4 33 -13 26 -44 -19 -53 -17
-69 8 -14 21 -17 40 -12 89 7 83 36 157 102 257 30 46 55 85 55 87 0 14 -26
-5 -63 -48z"/>
<path d="M13384 16958 c-77 -83 -169 -267 -195 -388 -6 -29 -9 -84 -7 -122 3
-59 8 -74 27 -89 35 -29 66 -24 96 15 27 35 82 173 72 182 -3 3 -16 -2 -30
-10 -23 -15 -26 -15 -48 3 -21 17 -24 28 -24 83 0 81 31 163 101 270 30 45 53
86 51 91 -1 5 -21 -11 -43 -35z"/>
<path d="M14822 16970 c-162 -43 -334 -145 -464 -277 -103 -105 -114 -120
-122 -177 -4 -27 -10 -56 -14 -65 -3 -9 34 26 82 77 49 51 118 115 155 142 84
63 239 143 333 171 87 26 94 31 101 68 3 16 9 40 13 55 7 30 10 30 -84 6z"/>
<path d="M6706 16896 c-9 -30 -16 -56 -16 -59 0 -3 -4 -17 -10 -31 l-9 -26
-60 38 c-60 40 -119 68 -125 61 -2 -2 -18 -51 -35 -109 -25 -82 -29 -107 -19
-113 7 -4 50 -29 96 -56 l82 -49 14 31 c7 18 19 56 26 85 8 28 18 52 23 52 8
0 98 -50 150 -85 l26 -17 30 98 c17 54 31 106 31 116 0 20 -68 69 -135 98 -26
11 -48 20 -50 20 -2 0 -11 -24 -19 -54z"/>
<path d="M10191 16083 c-106 -213 -142 -404 -107 -570 7 -35 11 -63 9 -63 -2
0 -22 9 -44 21 -60 30 -146 41 -226 29 -94 -14 -205 -71 -342 -175 l-114 -86
-28 35 c-50 60 -123 69 -195 25 -34 -20 -68 -88 -60 -118 2 -9 7 -26 11 -38 5
-18 2 -20 -14 -16 -26 7 -111 81 -111 96 0 7 14 20 30 29 60 34 29 132 -42
132 -123 0 -143 -147 -37 -268 l30 -35 -38 6 c-60 9 -131 43 -159 76 l-26 31
26 13 c59 31 34 115 -36 121 -25 2 -41 -3 -62 -23 -26 -24 -28 -31 -24 -80 3
-36 13 -67 31 -94 15 -22 27 -43 27 -46 0 -3 -797 -5 -1770 -5 l-1770 0 -45
-21 c-53 -25 -101 -79 -115 -129 -36 -130 28 -268 141 -302 33 -9 39 -15 35
-31 -3 -11 0 -29 5 -39 7 -14 7 -23 -1 -33 -8 -10 -8 -19 -1 -33 9 -17 6 -22
-20 -32 -56 -24 -80 -122 -40 -171 17 -21 17 -26 4 -46 -8 -12 -13 -35 -12
-51 2 -16 -3 -37 -11 -47 -7 -9 -15 -33 -16 -53 -1 -20 -10 -54 -19 -76 -9
-21 -14 -45 -11 -53 3 -8 -1 -24 -9 -36 -8 -12 -15 -40 -15 -62 0 -22 -7 -49
-15 -59 -8 -11 -15 -35 -15 -53 0 -19 -7 -45 -16 -58 -9 -13 -14 -37 -13 -53
2 -16 -3 -37 -11 -47 -8 -9 -15 -33 -16 -53 0 -21 -9 -54 -18 -74 -8 -20 -13
-44 -10 -53 3 -8 -1 -26 -10 -40 -9 -13 -16 -40 -16 -60 0 -20 -7 -47 -16 -60
-9 -13 -14 -37 -13 -53 2 -16 -3 -37 -11 -47 -7 -9 -15 -33 -16 -53 -1 -20
-10 -54 -19 -76 -9 -21 -14 -45 -11 -53 3 -8 -1 -24 -9 -36 -8 -12 -15 -39
-15 -60 0 -21 -7 -49 -16 -62 -9 -13 -14 -37 -13 -52 2 -15 -5 -40 -15 -55
-10 -15 -16 -40 -15 -56 2 -16 -3 -37 -11 -47 -8 -9 -14 -33 -15 -53 -1 -21
-7 -47 -14 -60 -7 -13 -13 -38 -13 -55 -1 -18 -7 -41 -14 -52 -8 -11 -14 -37
-14 -58 0 -21 -7 -49 -16 -62 -9 -13 -14 -37 -13 -53 2 -16 -3 -37 -11 -47 -8
-9 -15 -33 -16 -53 0 -21 -9 -54 -18 -74 -8 -20 -13 -44 -10 -52 3 -8 -1 -25
-10 -38 -9 -12 -16 -37 -16 -56 0 -18 -7 -47 -16 -63 -8 -17 -14 -43 -13 -57
2 -15 -5 -39 -15 -54 -10 -15 -16 -40 -15 -56 2 -16 -3 -37 -11 -47 -8 -9 -14
-33 -15 -53 -1 -21 -7 -47 -13 -59 -7 -12 -12 -37 -12 -55 0 -18 -7 -42 -15
-52 -8 -11 -15 -35 -15 -53 0 -19 -7 -48 -16 -64 -8 -17 -14 -43 -12 -59 1
-15 -4 -35 -12 -45 -8 -9 -14 -34 -15 -55 0 -21 -7 -45 -14 -54 -7 -8 -13 -32
-14 -53 0 -21 -6 -47 -14 -58 -7 -11 -13 -34 -13 -53 0 -18 -7 -47 -16 -63 -8
-17 -14 -43 -13 -57 2 -15 -5 -39 -15 -55 -12 -17 -16 -37 -13 -55 3 -17 -1
-34 -11 -45 -9 -10 -16 -34 -17 -55 0 -20 -6 -47 -13 -59 -6 -12 -12 -37 -12
-55 0 -18 -7 -42 -15 -52 -8 -11 -15 -35 -15 -53 0 -19 -7 -48 -16 -64 -8 -17
-14 -43 -12 -59 1 -15 -4 -35 -12 -45 -8 -9 -14 -34 -15 -55 0 -21 -7 -45 -14
-54 -7 -8 -13 -32 -13 -53 0 -21 -6 -46 -14 -57 -8 -11 -14 -35 -14 -52 0 -17
-7 -45 -16 -63 -9 -18 -14 -45 -12 -62 3 -16 1 -29 -3 -29 -13 0 -31 -60 -26
-82 4 -14 0 -29 -10 -40 -9 -11 -17 -35 -18 -56 0 -20 -6 -47 -13 -59 -6 -12
-12 -37 -12 -55 0 -18 -7 -42 -15 -52 -8 -11 -15 -35 -15 -53 0 -19 -7 -48
-16 -65 -10 -18 -14 -42 -10 -59 3 -16 2 -29 -3 -29 -14 0 -31 -60 -25 -84 3
-14 -1 -28 -10 -35 -10 -8 -16 -30 -16 -55 0 -22 -7 -50 -15 -60 -8 -11 -15
-34 -15 -51 0 -18 -7 -46 -16 -63 -8 -18 -14 -42 -13 -54 2 -13 -5 -38 -15
-57 -10 -19 -16 -45 -13 -60 3 -15 -1 -33 -10 -43 -8 -9 -15 -34 -16 -55 0
-21 -6 -47 -14 -58 -7 -11 -13 -35 -13 -55 0 -19 -7 -44 -15 -54 -8 -11 -15
-34 -15 -51 0 -18 -7 -46 -16 -63 -8 -18 -14 -42 -13 -54 1 -13 -6 -40 -15
-61 -9 -20 -14 -48 -11 -60 4 -15 1 -28 -9 -36 -10 -8 -16 -30 -16 -55 0 -22
-7 -50 -15 -60 -8 -11 -15 -35 -15 -53 0 -19 -7 -45 -16 -58 -9 -13 -14 -37
-12 -54 2 -22 -5 -38 -26 -60 -37 -38 -38 -78 -2 -106 14 -11 26 -27 26 -35 1
-34 80 -202 134 -285 79 -122 259 -300 391 -387 217 -144 451 -239 717 -292
170 -34 291 -46 473 -46 365 0 679 71 980 221 177 88 303 177 430 304 136 136
240 298 289 451 9 28 28 62 41 74 33 31 31 62 -5 103 -21 24 -30 45 -30 70 0
19 -7 40 -16 48 -10 8 -13 21 -9 36 3 12 -2 40 -11 60 -9 21 -17 55 -18 75 -1
20 -9 44 -16 53 -8 10 -13 31 -11 47 1 16 -4 40 -13 53 -9 13 -16 39 -16 57 0
19 -6 42 -13 53 -8 11 -14 37 -14 58 -1 21 -8 46 -16 55 -9 10 -13 28 -10 43
3 15 -3 41 -13 60 -10 19 -17 47 -15 62 1 15 -4 39 -13 52 -9 13 -16 39 -16
58 0 18 -7 42 -15 53 -8 10 -15 38 -15 60 0 25 -6 47 -16 55 -9 7 -13 21 -10
35 6 24 -11 84 -25 84 -5 0 -6 13 -3 29 4 17 0 41 -10 59 -9 17 -16 46 -16 65
0 18 -7 42 -15 53 -8 10 -15 34 -15 52 0 18 -6 43 -12 55 -7 12 -13 39 -13 59
-1 21 -9 45 -18 56 -10 11 -14 26 -10 40 5 22 -13 82 -26 82 -4 0 -5 16 -3 35
3 22 -2 45 -12 60 -9 13 -16 39 -16 57 0 19 -6 43 -14 54 -8 11 -14 36 -14 57
0 21 -6 45 -13 53 -7 9 -14 33 -14 55 -1 21 -8 46 -17 56 -10 11 -14 28 -11
44 3 15 -2 40 -11 57 -9 17 -16 46 -16 65 0 18 -7 42 -15 53 -8 10 -15 34 -15
52 0 18 -6 43 -12 55 -7 12 -13 39 -13 59 -1 21 -9 45 -18 56 -10 11 -14 26
-10 40 5 22 -13 82 -26 82 -4 0 -6 13 -3 29 2 17 -3 44 -12 62 -9 18 -16 46
-16 63 0 17 -6 40 -13 51 -8 11 -14 37 -14 58 -1 21 -7 45 -14 53 -7 9 -14 33
-14 54 -1 21 -7 46 -15 55 -8 10 -13 30 -12 45 2 16 -4 42 -12 59 -9 16 -16
45 -16 64 0 18 -7 42 -15 53 -8 10 -15 34 -15 52 0 18 -5 43 -12 55 -6 12 -12
38 -13 59 -1 20 -7 44 -15 53 -8 10 -13 31 -11 47 1 16 -5 41 -15 56 -10 15
-17 39 -15 54 1 14 -5 40 -13 57 -9 16 -16 45 -16 63 0 19 -7 44 -16 56 -9 13
-13 30 -10 38 3 8 -2 32 -10 52 -9 20 -18 53 -18 74 -1 20 -8 44 -16 53 -8 10
-13 31 -11 47 1 16 -4 40 -13 53 -9 13 -16 42 -16 63 0 21 -7 47 -15 58 -8 10
-15 34 -15 52 0 18 -5 43 -12 55 -6 12 -12 38 -13 59 -1 20 -7 44 -15 53 -8
10 -13 31 -11 47 1 16 -5 41 -15 56 -10 15 -17 39 -15 54 1 14 -5 40 -13 57
-9 16 -16 45 -16 63 0 19 -7 43 -15 55 -8 12 -12 28 -9 36 3 8 -2 32 -11 53
-9 22 -18 56 -19 76 -1 20 -9 44 -16 53 -8 10 -13 31 -11 47 1 16 -4 40 -13
53 -9 13 -16 40 -16 60 0 20 -7 47 -16 60 -9 14 -13 32 -10 40 3 9 -2 33 -10
53 -9 20 -18 53 -18 74 -1 20 -8 44 -16 53 -8 10 -13 31 -11 47 1 16 -4 40
-13 53 -9 13 -16 39 -16 58 0 18 -7 42 -15 53 -8 10 -15 37 -15 59 0 22 -7 50
-15 62 -8 12 -12 28 -9 36 3 8 -2 32 -11 53 -9 22 -18 56 -19 76 -1 20 -9 44
-16 53 -8 10 -13 31 -11 47 1 16 -4 40 -13 53 -9 13 -16 42 -16 63 0 24 -6 45
-16 53 -10 8 -13 21 -9 36 3 12 -1 38 -8 56 -13 29 -12 36 4 67 11 19 19 46
19 60 0 34 -34 88 -64 102 -20 9 -24 16 -19 38 3 16 0 31 -6 35 -9 5 -9 10 0
21 6 8 9 22 6 33 -4 16 3 19 48 24 140 14 222 128 185 256 -5 19 -8 36 -7 38
2 1 255 -63 563 -142 1392 -361 2234 -564 2619 -630 414 -71 717 -54 940 54
134 65 238 187 260 305 l8 38 29 -60 c15 -34 49 -81 73 -107 41 -42 151 -105
184 -105 9 0 6 -10 -11 -32 -37 -51 -49 -87 -55 -163 -4 -51 -1 -88 12 -130
21 -74 85 -199 125 -245 l30 -35 29 34 c44 50 117 200 131 267 22 103 0 219
-50 272 -12 13 -20 24 -19 26 2 1 25 10 50 20 104 38 184 115 227 217 l19 44
7 -40 c23 -120 125 -240 260 -305 224 -109 527 -126 941 -55 390 67 1204 263
2619 630 308 79 561 143 563 142 1 -2 -2 -19 -7 -38 -21 -71 -6 -139 42 -188
43 -44 80 -62 143 -68 45 -5 52 -8 48 -24 -3 -11 0 -25 6 -33 9 -11 9 -16 0
-21 -6 -4 -9 -19 -6 -35 5 -22 1 -29 -19 -38 -30 -14 -64 -68 -64 -102 0 -14
8 -41 19 -60 16 -31 17 -38 4 -67 -7 -18 -11 -44 -8 -56 4 -15 1 -28 -9 -36
-10 -8 -16 -29 -16 -53 0 -21 -7 -50 -16 -63 -9 -13 -14 -37 -13 -53 2 -16 -3
-37 -11 -47 -7 -9 -15 -33 -16 -54 -1 -20 -9 -52 -19 -70 -9 -18 -14 -43 -11
-55 2 -11 -2 -30 -10 -40 -8 -11 -14 -38 -14 -60 0 -23 -7 -50 -15 -60 -8 -11
-15 -35 -15 -53 0 -19 -7 -45 -16 -58 -9 -13 -14 -37 -13 -53 2 -16 -3 -37
-11 -47 -8 -9 -15 -33 -16 -53 0 -21 -9 -54 -18 -74 -8 -20 -13 -44 -10 -53 3
-8 -1 -26 -10 -40 -9 -13 -16 -40 -16 -60 0 -20 -7 -47 -16 -60 -9 -13 -14
-37 -13 -53 2 -16 -3 -37 -11 -47 -7 -9 -15 -33 -16 -53 -1 -20 -10 -54 -19
-76 -9 -21 -14 -45 -11 -53 3 -8 -1 -24 -9 -36 -8 -12 -15 -36 -15 -55 0 -18
-7 -47 -16 -63 -8 -17 -14 -43 -13 -57 2 -15 -5 -39 -15 -54 -10 -15 -16 -40
-15 -56 2 -16 -3 -37 -11 -47 -8 -9 -14 -33 -15 -53 -1 -21 -7 -47 -14 -60 -7
-13 -13 -38 -13 -55 -1 -18 -7 -41 -14 -52 -8 -11 -14 -37 -14 -58 0 -21 -7
-49 -16 -62 -9 -13 -14 -37 -13 -53 2 -16 -3 -37 -11 -47 -8 -9 -15 -33 -16
-53 0 -21 -9 -54 -18 -74 -8 -20 -13 -44 -10 -52 3 -8 -1 -25 -10 -38 -9 -12
-16 -37 -16 -56 0 -18 -7 -47 -16 -63 -8 -17 -14 -43 -13 -57 2 -15 -5 -39
-15 -54 -10 -15 -16 -40 -15 -56 2 -16 -3 -37 -11 -47 -8 -9 -14 -33 -15 -53
-1 -21 -7 -47 -13 -59 -7 -12 -12 -37 -12 -55 0 -18 -7 -42 -15 -52 -8 -11
-15 -35 -15 -53 0 -19 -7 -48 -16 -64 -8 -17 -14 -43 -12 -59 1 -15 -4 -35
-12 -45 -8 -9 -14 -34 -15 -55 0 -21 -7 -45 -14 -54 -7 -8 -13 -32 -14 -53 0
-21 -6 -47 -14 -58 -7 -11 -13 -34 -13 -53 0 -18 -7 -44 -16 -57 -10 -15 -15
-38 -12 -60 2 -19 1 -35 -3 -35 -13 0 -31 -60 -26 -82 4 -14 0 -29 -10 -40 -9
-11 -17 -35 -18 -56 0 -20 -6 -47 -13 -59 -6 -12 -12 -37 -12 -55 0 -18 -7
-42 -15 -52 -8 -11 -15 -35 -15 -53 0 -19 -7 -48 -16 -65 -9 -17 -14 -42 -11
-57 3 -16 -1 -33 -11 -44 -9 -10 -16 -35 -17 -56 0 -22 -7 -46 -14 -55 -7 -8
-13 -32 -13 -53 0 -21 -6 -46 -14 -57 -8 -11 -14 -36 -14 -56 0 -19 -7 -44
-15 -54 -8 -11 -15 -35 -15 -53 0 -19 -7 -48 -16 -65 -9 -17 -14 -42 -11 -57
3 -16 -1 -33 -11 -44 -9 -10 -16 -34 -17 -55 0 -20 -6 -47 -13 -59 -6 -12 -12
-37 -12 -55 0 -18 -7 -42 -15 -52 -8 -11 -15 -35 -15 -53 0 -19 -7 -48 -16
-65 -10 -18 -14 -42 -10 -59 3 -16 2 -29 -3 -29 -14 0 -31 -60 -25 -84 3 -14
-1 -28 -10 -35 -10 -8 -16 -30 -16 -55 0 -22 -7 -50 -15 -60 -8 -11 -15 -35
-15 -53 0 -19 -7 -45 -16 -58 -9 -13 -14 -37 -13 -52 2 -15 -5 -43 -15 -62
-10 -19 -16 -45 -13 -60 3 -16 -1 -33 -11 -44 -9 -10 -16 -34 -17 -55 0 -20
-6 -47 -13 -59 -6 -12 -12 -37 -12 -55 0 -18 -7 -42 -15 -52 -8 -11 -15 -34
-15 -51 0 -18 -7 -46 -16 -63 -8 -18 -14 -42 -13 -54 1 -13 -6 -40 -15 -61 -9
-20 -14 -48 -11 -60 4 -15 1 -28 -9 -36 -9 -8 -16 -29 -16 -48 0 -25 -9 -46
-30 -70 -36 -41 -38 -72 -5 -103 13 -12 32 -46 41 -74 164 -501 745 -889 1446
-965 125 -14 381 -14 506 0 244 26 517 102 716 199 362 177 636 461 732 760 9
30 28 64 42 76 34 28 32 67 -4 105 -19 20 -28 38 -26 55 2 13 -4 38 -12 56 -9
17 -16 45 -16 63 0 17 -7 40 -15 51 -8 10 -15 38 -15 60 0 25 -6 47 -16 55
-10 8 -13 21 -9 36 3 12 -2 40 -11 60 -9 21 -16 48 -15 60 1 12 -5 35 -13 52
-9 16 -16 45 -16 64 0 18 -7 42 -15 53 -8 10 -15 35 -15 54 0 20 -6 44 -13 55
-8 11 -14 37 -14 58 -1 21 -8 46 -16 55 -9 10 -13 28 -10 43 3 15 -3 41 -13
60 -10 19 -17 44 -15 57 1 12 -5 36 -13 54 -9 17 -16 45 -16 63 0 17 -7 40
-15 51 -8 10 -15 38 -15 60 0 25 -6 47 -16 55 -9 7 -13 21 -10 35 6 24 -11 84
-25 84 -5 0 -6 13 -3 29 4 17 0 41 -10 59 -9 17 -16 46 -16 65 0 18 -7 42 -15
53 -8 10 -15 34 -15 52 0 18 -6 43 -12 55 -7 12 -13 39 -13 59 -1 21 -9 45
-18 56 -10 11 -14 26 -10 40 5 22 -13 82 -26 82 -4 0 -6 13 -3 29 2 17 -3 44
-12 62 -9 18 -16 46 -16 64 0 17 -7 40 -15 51 -8 10 -15 37 -15 60 0 22 -5 45
-12 52 -7 7 -13 30 -13 52 -1 21 -8 47 -17 57 -10 11 -14 28 -11 44 3 15 -2
40 -11 57 -9 17 -16 46 -16 65 0 18 -7 42 -15 53 -8 10 -15 34 -15 52 0 18 -6
43 -12 55 -7 12 -13 39 -13 59 -1 21 -8 45 -17 55 -10 11 -14 28 -11 45 3 18
-1 38 -13 55 -10 16 -17 40 -15 55 1 14 -5 40 -13 57 -9 16 -16 45 -16 63 0
19 -7 44 -16 56 -9 13 -13 30 -10 38 3 8 -2 32 -10 52 -9 20 -18 53 -18 74 -1
20 -8 44 -16 53 -8 10 -13 30 -12 45 2 16 -4 42 -12 59 -9 16 -16 45 -16 64 0
18 -7 42 -15 53 -8 10 -15 34 -15 52 0 18 -5 43 -12 55 -6 12 -12 38 -13 59
-1 20 -7 44 -15 53 -8 10 -13 31 -11 47 1 16 -5 41 -15 56 -10 15 -17 39 -15
54 1 14 -5 40 -13 57 -9 16 -16 45 -16 63 0 19 -7 44 -16 56 -9 13 -13 30 -10
38 3 8 -2 32 -10 52 -9 20 -18 53 -18 74 -1 20 -8 44 -16 53 -8 10 -13 31 -11
47 1 16 -4 40 -13 53 -9 13 -16 42 -16 63 0 21 -7 47 -15 58 -8 10 -15 34 -15
52 0 18 -5 43 -12 55 -6 12 -12 38 -13 59 -1 20 -7 44 -15 53 -8 10 -13 31
-11 47 1 16 -5 41 -15 56 -10 15 -17 40 -15 55 1 15 -4 39 -13 52 -9 13 -16
41 -16 62 0 21 -7 48 -15 60 -8 12 -12 28 -9 36 3 8 -2 32 -11 53 -9 22 -18
56 -19 76 -1 20 -9 44 -16 53 -8 10 -13 31 -11 47 1 16 -4 40 -13 53 -9 13
-16 40 -16 60 0 20 -7 47 -16 60 -9 14 -13 32 -10 40 3 9 -2 33 -10 53 -9 20
-18 53 -18 74 -1 20 -8 44 -16 53 -8 10 -13 31 -11 47 1 16 -4 40 -13 53 -9
13 -16 39 -16 58 0 18 -7 42 -15 53 -8 10 -15 37 -15 59 0 22 -7 50 -15 62 -8
12 -12 28 -9 36 3 8 -2 32 -11 53 -9 22 -18 56 -19 76 -1 20 -9 44 -16 53 -8
10 -13 31 -11 47 1 16 -4 39 -12 51 -13 20 -13 25 4 46 21 26 25 87 8 125 -6
13 -26 32 -45 42 -27 15 -31 21 -23 37 7 12 7 23 -1 32 -8 10 -8 19 -1 33 5
10 8 28 5 39 -4 16 2 22 35 31 145 44 201 253 100 375 -16 19 -49 44 -74 56
l-45 21 -1770 0 c-973 0 -1770 2 -1770 5 0 3 12 24 27 46 18 27 28 58 31 94 4
49 2 56 -24 80 -21 20 -37 25 -62 23 -70 -6 -95 -90 -36 -121 l26 -13 -26 -31
c-28 -33 -99 -67 -158 -76 l-37 -6 39 50 c84 106 77 219 -15 249 -60 20 -105
-14 -105 -80 0 -24 7 -35 30 -48 16 -9 30 -22 30 -29 0 -15 -85 -89 -111 -96
-21 -6 -20 -6 -4 49 9 34 -23 101 -59 123 -72 44 -145 35 -194 -25 l-29 -35
-124 93 c-68 51 -155 107 -194 125 -127 58 -266 63 -364 14 -22 -12 -42 -21
-44 -21 -2 0 3 30 11 68 20 94 11 233 -23 347 -29 100 -118 295 -134 295 -6 0
-28 -35 -50 -77z m-139 -1022 c36 -40 35 -47 -4 -67 -86 -44 -147 -117 -183
-217 l-23 -61 -7 50 c-13 98 28 180 103 205 l34 11 -28 29 c-15 16 -42 31 -60
35 -47 9 -119 -26 -145 -70 l-20 -35 -46 32 -45 32 39 6 c21 3 71 20 111 38
137 61 227 65 274 12z m527 29 c29 -5 84 -24 124 -42 40 -17 88 -34 108 -37
l36 -6 -42 -32 -43 -32 -21 35 c-26 44 -98 79 -145 70 -18 -4 -45 -19 -60 -35
l-28 -29 34 -11 c75 -25 116 -107 103 -205 l-7 -50 -23 61 c-37 103 -86 159
-201 229 -18 11 -18 13 2 40 38 53 72 62 163 44z m-5409 -980 c-9 -22 -9 -38
-1 -60 7 -21 7 -39 0 -57 -6 -17 -6 -36 0 -55 7 -19 6 -38 -1 -59 -8 -22 -7
-37 1 -56 9 -20 9 -33 0 -54 -8 -21 -8 -37 0 -59 7 -21 7 -39 0 -57 -6 -17 -6
-36 0 -55 7 -19 6 -38 -1 -59 -8 -22 -7 -37 1 -56 9 -20 9 -33 0 -54 -8 -21
-8 -37 0 -59 7 -21 7 -39 0 -57 -6 -17 -6 -36 0 -55 7 -19 6 -38 -1 -59 -8
-22 -7 -37 1 -56 9 -20 9 -33 0 -54 -8 -21 -8 -37 0 -59 7 -21 7 -39 0 -57 -6
-18 -6 -36 0 -55 7 -19 7 -38 0 -55 -6 -17 -6 -36 1 -58 8 -24 8 -39 -1 -58
-8 -19 -9 -34 -1 -57 8 -21 8 -39 1 -57 -6 -18 -6 -36 0 -55 7 -19 7 -38 0
-55 -6 -17 -6 -36 1 -58 8 -24 8 -39 -1 -58 -8 -19 -9 -34 -1 -57 8 -21 8 -39
1 -57 -6 -18 -6 -36 0 -55 7 -19 7 -38 0 -55 -6 -17 -6 -36 0 -55 7 -19 7 -38
0 -58 -8 -21 -8 -39 0 -60 7 -21 7 -39 0 -57 -6 -18 -6 -36 0 -55 7 -19 7 -38
0 -55 -6 -17 -6 -36 0 -55 7 -19 7 -38 0 -58 -8 -21 -8 -39 0 -60 7 -20 7 -39
0 -58 -6 -19 -6 -38 0 -55 7 -18 7 -36 0 -54 -6 -17 -6 -36 0 -55 7 -19 7 -38
0 -58 -8 -21 -8 -39 0 -60 7 -21 7 -39 0 -57 -6 -18 -6 -36 0 -55 7 -19 7 -38
0 -55 -6 -17 -6 -36 0 -55 7 -19 7 -38 0 -58 -8 -21 -8 -39 0 -60 7 -21 7 -39
0 -57 -6 -18 -6 -36 0 -55 7 -19 7 -38 0 -55 -6 -17 -6 -36 0 -55 7 -19 7 -38
0 -58 -8 -21 -8 -39 0 -60 7 -21 7 -39 0 -57 -6 -18 -6 -36 0 -55 7 -19 7 -38
0 -55 -6 -17 -6 -36 0 -55 7 -19 6 -38 -1 -59 -8 -22 -7 -37 1 -56 9 -20 9
-33 0 -54 -8 -21 -8 -37 0 -59 7 -21 7 -39 0 -57 -6 -17 -6 -36 0 -55 7 -19 6
-38 -1 -59 -8 -22 -7 -37 1 -56 9 -20 9 -33 0 -54 -8 -21 -8 -37 0 -59 7 -21
7 -39 0 -57 -6 -17 -6 -36 0 -55 7 -19 6 -38 -1 -59 -8 -22 -7 -37 1 -56 9
-20 9 -33 0 -54 -8 -21 -8 -37 0 -59 7 -21 7 -39 0 -57 -6 -17 -6 -36 0 -55 7
-19 6 -38 -1 -59 -8 -22 -7 -37 1 -56 9 -20 9 -33 0 -54 -8 -21 -8 -37 0 -59
7 -21 7 -39 0 -57 -6 -17 -6 -36 0 -55 7 -19 6 -38 -1 -59 -8 -22 -7 -37 1
-56 9 -20 9 -33 0 -54 -8 -21 -8 -37 0 -59 7 -21 7 -39 0 -57 -6 -17 -6 -36 0
-55 7 -19 6 -38 -1 -59 -8 -22 -7 -37 1 -56 9 -20 9 -33 0 -54 -8 -21 -8 -37
0 -59 7 -21 7 -39 0 -57 -6 -17 -6 -36 0 -55 7 -19 6 -38 -1 -58 -7 -22 -7
-38 2 -59 9 -22 9 -34 0 -51 -6 -12 -8 -34 -5 -51 l7 -29 -119 0 c-546 0
-1095 -100 -1406 -256 -37 -19 -70 -34 -73 -34 -9 0 -3 39 12 68 8 18 14 42
13 54 -2 13 5 38 15 57 10 18 15 43 12 55 -2 11 2 30 10 40 8 11 14 38 14 60
0 23 7 50 15 60 8 11 15 35 15 53 0 19 7 45 16 58 9 13 14 37 13 53 -2 16 3
37 11 47 7 9 15 33 16 53 1 20 9 54 18 75 9 20 14 48 11 60 -4 15 -1 28 9 36
10 8 16 29 16 53 0 21 7 50 16 63 9 13 14 37 13 53 -2 16 3 37 11 47 7 9 15
33 16 53 1 20 10 54 19 76 9 21 14 45 11 53 -3 8 1 24 9 36 8 12 15 40 15 62
0 22 7 49 15 59 8 11 15 35 15 53 0 19 7 45 16 58 9 13 14 37 13 53 -2 16 3
37 11 47 8 9 15 33 16 53 0 21 9 54 18 74 8 20 13 44 10 52 -3 8 1 25 10 38 9
12 16 40 16 61 0 21 7 49 16 62 9 13 14 37 13 53 -2 16 3 37 11 47 7 9 15 33
16 53 1 20 10 54 19 76 9 21 14 45 11 53 -3 8 1 24 9 36 8 12 15 36 15 55 0
18 7 47 16 63 8 17 14 43 13 57 -2 15 5 39 15 54 10 15 16 40 15 56 -2 16 3
37 11 47 8 9 14 33 15 53 1 21 7 47 13 59 7 12 12 37 12 55 0 18 7 42 15 52 8
11 15 35 15 53 0 19 7 48 16 64 8 17 14 43 12 59 -1 15 4 35 12 45 8 9 14 34
15 55 0 21 7 45 14 54 7 8 13 32 14 53 0 21 6 47 14 58 7 11 13 34 13 53 0 18
7 47 16 63 8 17 14 43 13 57 -2 15 5 39 15 55 12 17 16 37 13 55 -3 17 1 34
11 45 9 10 16 35 17 55 1 20 7 47 13 59 7 12 12 37 12 55 0 18 7 42 15 52 8
11 15 35 15 53 0 19 7 48 16 64 8 17 14 43 12 59 -1 15 4 35 12 45 8 9 14 34
15 55 0 21 7 45 14 54 7 8 13 32 14 53 0 21 6 47 14 58 7 11 13 34 13 53 0 18
7 44 16 57 10 15 15 38 12 60 -2 19 -1 35 3 35 13 0 31 60 26 82 -4 14 0 29
10 40 9 11 17 35 18 56 0 20 6 47 13 59 6 12 12 37 12 55 0 18 7 42 15 52 8
11 15 35 15 53 0 19 7 48 16 65 9 17 14 42 11 57 -3 16 1 33 11 44 9 10 16 36
17 57 0 22 6 45 13 52 7 7 12 30 12 53 0 22 7 49 15 59 8 11 15 36 15 55 0 20
7 45 15 55 8 11 15 35 15 53 0 19 7 48 16 65 9 17 14 42 11 57 -3 16 1 33 11
44 9 10 16 34 17 55 0 20 6 47 13 59 6 12 12 37 12 55 0 18 7 42 15 52 8 11
15 34 15 51 0 18 7 46 16 64 10 20 14 44 10 62 -3 16 -2 29 3 29 14 0 31 60
25 84 -3 14 1 28 10 35 10 8 16 30 16 55 0 22 7 50 15 60 8 11 15 36 15 56 0
42 10 58 23 35 5 -10 4 -27 -3 -45z m84 21 c-4 -18 1 -41 12 -62 10 -19 17
-47 15 -62 -1 -15 4 -39 13 -52 9 -13 16 -39 16 -58 0 -18 7 -42 15 -53 8 -10
15 -38 15 -60 0 -25 6 -47 16 -55 9 -7 13 -21 10 -35 -6 -24 11 -84 25 -84 5
0 6 -13 3 -29 -4 -17 0 -41 10 -59 9 -17 16 -46 16 -65 0 -18 7 -42 15 -53 8
-10 15 -34 15 -52 0 -18 6 -43 12 -55 7 -12 13 -39 13 -59 1 -21 8 -45 17 -55
10 -11 14 -28 11 -44 -3 -15 2 -40 11 -57 9 -17 16 -46 16 -65 0 -18 7 -42 15
-53 8 -10 15 -35 15 -55 0 -19 7 -44 15 -55 8 -10 15 -37 15 -59 0 -23 5 -46
12 -53 7 -7 13 -30 13 -52 1 -21 8 -47 17 -57 10 -11 14 -28 11 -44 -3 -15 2
-40 11 -57 9 -17 16 -46 16 -65 0 -18 7 -42 15 -53 8 -10 15 -34 15 -52 0 -18
6 -43 12 -55 7 -12 13 -39 13 -59 1 -21 9 -45 18 -56 10 -11 14 -26 10 -40 -5
-22 13 -82 26 -82 4 0 6 -13 3 -29 -2 -17 3 -44 12 -62 9 -18 16 -46 16 -63 0
-17 6 -40 13 -51 8 -11 14 -37 14 -58 1 -21 7 -45 14 -53 7 -9 14 -33 14 -54
1 -21 7 -46 15 -55 8 -10 13 -30 12 -45 -2 -16 4 -42 12 -59 9 -16 16 -45 16
-64 0 -18 7 -42 15 -53 8 -10 15 -34 15 -52 0 -18 5 -43 12 -55 6 -12 12 -39
13 -59 1 -20 8 -45 17 -55 10 -11 14 -28 11 -45 -3 -18 1 -38 13 -55 10 -16
17 -40 15 -55 -1 -14 5 -40 13 -57 9 -16 16 -45 16 -63 0 -19 7 -44 16 -56 9
-13 13 -30 10 -38 -3 -8 2 -32 10 -52 9 -20 18 -53 18 -74 1 -20 8 -44 16 -53
8 -10 13 -31 11 -47 -1 -16 4 -40 13 -53 9 -13 16 -42 16 -63 0 -21 7 -47 15
-58 8 -10 15 -34 15 -52 0 -18 5 -43 12 -55 6 -12 12 -38 13 -59 1 -20 7 -44
15 -53 8 -10 13 -31 11 -47 -1 -16 5 -41 15 -56 10 -15 17 -39 15 -54 -1 -14
5 -40 13 -57 9 -16 16 -45 16 -63 0 -19 7 -43 15 -55 8 -12 12 -28 9 -36 -3
-8 2 -32 11 -53 9 -22 18 -56 19 -76 1 -20 9 -44 16 -53 8 -10 13 -31 11 -47
-1 -16 4 -40 13 -53 9 -13 16 -40 16 -60 0 -20 7 -47 16 -60 9 -14 13 -32 10
-40 -3 -9 2 -33 10 -53 9 -20 18 -53 18 -74 1 -20 8 -44 16 -53 8 -10 13 -31
11 -47 -1 -16 4 -40 13 -53 9 -13 16 -39 16 -58 0 -18 7 -42 15 -53 8 -10 15
-37 15 -59 0 -22 7 -50 15 -62 8 -12 12 -28 9 -36 -3 -8 2 -32 11 -53 9 -22
18 -56 19 -76 1 -20 9 -44 16 -53 8 -10 13 -31 11 -47 -1 -16 4 -40 13 -53 9
-13 16 -42 16 -63 0 -24 6 -45 16 -53 10 -8 13 -21 9 -36 -3 -12 2 -40 11 -60
9 -21 17 -55 18 -75 1 -20 9 -44 16 -53 8 -10 13 -31 11 -47 -1 -16 4 -40 13
-53 9 -13 16 -39 16 -58 0 -18 7 -42 15 -53 8 -10 15 -38 15 -60 0 -24 6 -47
15 -54 17 -14 19 -29 7 -47 -6 -10 -24 -4 -73 21 -275 145 -751 237 -1309 253
l-215 6 -2 44 c-1 23 -2 49 -2 56 -1 6 2 29 5 50 4 21 2 43 -4 50 -7 8 -7 18
-2 27 6 8 10 29 10 45 0 17 -4 37 -10 45 -5 9 -5 19 2 27 6 7 8 29 4 50 -3 21
-6 43 -6 48 0 6 3 27 6 48 4 21 2 43 -4 50 -7 8 -7 18 -2 27 6 8 10 29 10 45
0 17 -4 37 -10 45 -5 9 -5 19 2 27 6 7 8 29 4 50 -3 21 -6 43 -6 48 0 6 3 27
6 48 4 21 2 43 -4 50 -7 8 -7 18 -2 27 6 8 10 29 10 45 0 17 -4 37 -10 45 -5
9 -5 19 2 27 6 7 8 29 4 50 -3 21 -6 43 -6 48 0 6 3 27 6 48 4 21 2 43 -4 50
-7 8 -7 18 -2 27 6 8 10 29 10 45 0 17 -4 37 -10 45 -5 9 -5 19 2 27 6 7 8 29
4 50 -3 21 -6 44 -5 51 0 6 1 30 1 52 0 22 -1 46 -1 53 -1 6 2 28 5 48 3 20 1
46 -5 57 -8 15 -8 23 0 28 7 4 9 22 5 48 -3 22 -5 47 -5 54 1 17 1 90 0 105
-1 6 2 28 5 48 3 20 1 46 -5 57 -8 15 -8 23 0 28 7 4 9 22 5 48 -3 22 -5 47
-5 54 1 17 1 90 0 105 -1 6 2 28 5 48 3 20 1 46 -5 57 -8 15 -8 23 0 28 7 4 9
22 5 48 -3 22 -5 47 -5 54 1 17 1 90 0 105 -1 6 2 28 5 48 3 20 1 46 -5 57 -8
15 -8 23 0 28 7 4 9 22 5 48 -3 22 -5 47 -5 54 1 17 1 90 0 105 -1 6 2 28 5
48 3 20 1 46 -5 57 -8 15 -8 23 0 28 7 4 9 22 5 48 -3 22 -5 47 -5 54 1 17 1
90 0 105 -1 6 2 29 5 50 4 23 2 43 -6 52 -10 12 -10 18 0 30 8 9 10 29 6 52
-3 21 -6 44 -5 51 1 14 1 87 0 105 0 6 2 31 5 53 4 26 2 44 -5 48 -8 5 -8 13
0 28 6 11 8 37 5 57 -3 20 -6 42 -5 49 1 14 1 87 0 105 0 6 2 31 5 53 4 26 2
44 -5 48 -8 5 -8 13 0 28 6 11 8 37 5 57 -3 20 -6 42 -5 49 1 14 1 87 0 105 0
6 2 31 5 53 4 26 2 44 -5 48 -8 5 -8 13 0 28 6 11 8 37 5 57 -3 20 -6 42 -5
49 1 14 1 87 0 105 0 6 2 31 5 53 4 26 2 44 -5 48 -8 5 -8 13 0 28 6 11 8 37
5 57 -3 20 -6 42 -5 49 0 6 1 30 1 52 0 22 -1 46 -1 53 -1 6 2 29 5 50 4 21 2
43 -4 50 -7 8 -7 18 -2 27 6 8 10 29 10 45 0 17 -4 37 -10 45 -5 9 -5 19 2 27
6 7 8 29 4 50 -3 21 -6 43 -6 48 0 6 3 27 6 48 4 21 2 43 -4 50 -7 8 -7 18 -2
27 6 8 10 29 10 45 0 17 -4 37 -10 45 -5 9 -5 19 2 27 6 7 8 29 4 50 -3 21 -6
43 -6 48 0 6 3 27 6 48 4 21 2 43 -4 50 -7 8 -7 18 -2 27 13 20 12 67 0 90 -7
13 -7 21 0 25 12 8 13 65 1 84 -6 9 -6 22 0 33 14 27 29 12 23 -21z m9996 -12
c-13 -23 -13 -76 0 -84 7 -4 7 -12 0 -25 -12 -23 -13 -70 0 -90 5 -9 5 -19 -2
-27 -6 -7 -8 -29 -4 -50 3 -21 6 -42 6 -48 0 -5 -3 -27 -6 -48 -4 -21 -2 -43
4 -50 7 -8 7 -18 2 -27 -6 -8 -10 -28 -10 -45 0 -16 4 -37 10 -45 5 -9 5 -19
-2 -27 -6 -7 -8 -29 -4 -50 3 -21 6 -42 6 -48 0 -5 -3 -27 -6 -48 -4 -21 -2
-43 4 -50 7 -8 7 -18 2 -27 -6 -8 -10 -28 -10 -45 0 -16 4 -37 10 -45 5 -9 5
-19 -2 -27 -6 -7 -8 -29 -4 -50 3 -21 6 -42 6 -48 0 -5 -3 -27 -6 -48 -4 -21
-2 -43 4 -50 7 -8 7 -18 2 -27 -6 -8 -10 -28 -10 -45 0 -16 4 -37 10 -45 5 -9
5 -19 -2 -27 -6 -7 -8 -29 -4 -50 3 -21 6 -42 6 -48 0 -5 -3 -27 -6 -48 -4
-21 -2 -43 4 -50 7 -8 7 -18 2 -27 -6 -8 -10 -28 -10 -45 0 -16 4 -37 10 -45
5 -9 5 -19 -2 -27 -6 -7 -8 -29 -4 -50 3 -21 6 -44 5 -50 0 -7 -1 -31 -1 -53
0 -22 1 -46 1 -52 1 -7 -2 -29 -5 -49 -3 -20 -1 -46 5 -57 8 -15 8 -23 0 -28
-7 -4 -9 -22 -5 -48 3 -22 5 -47 5 -53 -1 -18 -1 -91 0 -105 1 -7 -2 -29 -5
-49 -3 -20 -1 -46 5 -57 8 -15 8 -23 0 -28 -7 -4 -9 -22 -5 -48 3 -22 5 -47 5
-53 0 -7 -1 -31 -1 -53 0 -22 0 -47 0 -55 0 -8 0 -60 0 -115 0 -55 0 -107 0
-115 0 -8 0 -33 0 -55 0 -22 1 -46 1 -52 0 -7 -2 -32 -5 -54 -4 -26 -2 -44 5
-48 8 -5 8 -13 0 -28 -6 -11 -8 -37 -5 -57 3 -20 6 -42 5 -48 -1 -15 -1 -88 0
-105 0 -7 -2 -32 -5 -54 -4 -26 -2 -44 5 -48 8 -5 8 -13 0 -28 -6 -11 -8 -37
-5 -57 3 -20 6 -42 5 -48 -1 -15 -1 -88 0 -105 0 -7 -2 -32 -5 -54 -4 -26 -2
-44 5 -48 8 -5 8 -13 0 -28 -6 -11 -8 -37 -5 -57 3 -20 6 -42 5 -48 0 -7 -1
-31 -1 -53 0 -22 1 -46 1 -52 1 -7 -2 -30 -5 -51 -4 -21 -2 -43 4 -50 7 -8 7
-18 2 -27 -6 -8 -10 -28 -10 -45 0 -16 4 -37 10 -45 5 -9 5 -19 -2 -27 -6 -7
-8 -29 -4 -50 3 -21 6 -42 6 -48 0 -5 -3 -27 -6 -48 -4 -21 -2 -43 4 -50 7 -8
7 -18 2 -27 -6 -8 -10 -28 -10 -45 0 -16 4 -37 10 -45 5 -9 5 -19 -2 -27 -6
-7 -8 -29 -4 -50 3 -21 6 -42 6 -48 0 -5 -3 -27 -6 -48 -4 -21 -2 -43 4 -50 7
-8 7 -18 2 -27 -6 -8 -10 -28 -10 -45 0 -16 4 -37 10 -45 5 -9 5 -19 -2 -27
-6 -7 -8 -29 -4 -50 3 -21 6 -42 6 -48 0 -5 -3 -27 -6 -48 -4 -21 -2 -43 4
-50 7 -8 7 -18 2 -27 -6 -8 -10 -28 -10 -45 0 -16 4 -37 10 -45 5 -9 5 -19 -2
-27 -6 -7 -8 -29 -4 -50 3 -21 6 -42 6 -48 0 -5 -3 -27 -6 -48 -4 -21 -2 -43
4 -50 7 -8 7 -18 2 -27 -6 -8 -10 -28 -10 -45 0 -16 4 -37 10 -45 5 -9 5 -19
-2 -27 -6 -7 -8 -29 -4 -50 3 -21 6 -42 6 -48 0 -5 -3 -27 -6 -48 -4 -21 -2
-43 4 -50 7 -8 7 -18 2 -27 -6 -8 -10 -28 -10 -45 0 -16 4 -37 10 -45 5 -9 5
-19 -2 -27 -6 -7 -8 -29 -4 -50 3 -21 6 -44 5 -50 0 -7 -1 -33 -2 -56 l-2 -44
-215 -6 c-558 -16 -1034 -108 -1309 -253 -49 -25 -67 -31 -73 -21 -12 18 -10
33 7 47 9 7 15 30 15 54 0 22 7 50 15 60 8 11 15 35 15 53 0 19 7 45 16 58 9
13 14 37 13 53 -2 16 3 37 11 47 7 9 15 33 16 53 1 20 9 54 18 75 9 20 14 48
11 60 -4 15 -1 28 9 36 10 8 16 29 16 53 0 21 7 50 16 63 9 13 14 37 13 53 -2
16 3 37 11 47 7 9 15 33 16 53 1 20 10 54 19 76 9 21 14 45 11 53 -3 8 1 24 9
36 8 12 15 40 15 62 0 22 7 49 15 59 8 11 15 35 15 53 0 19 7 45 16 58 9 13
14 37 13 53 -2 16 3 37 11 47 8 9 15 33 16 53 0 21 9 54 18 74 8 20 13 44 10
53 -3 8 1 26 10 40 9 13 16 40 16 60 0 20 7 47 16 60 9 13 14 37 13 53 -2 16
3 37 11 47 7 9 15 33 16 53 1 20 10 54 19 76 9 21 14 45 11 53 -3 8 1 24 9 36
8 12 15 36 15 55 0 18 7 47 16 63 8 17 14 43 13 57 -2 15 5 39 15 54 10 15 16
40 15 56 -2 16 3 37 11 47 8 9 14 33 15 53 1 21 7 47 13 59 7 12 12 37 12 55
0 18 7 42 15 52 8 11 15 37 15 58 0 21 7 50 16 63 9 13 14 37 13 53 -2 16 3
37 11 47 8 9 15 33 16 53 0 21 9 54 18 74 8 20 13 44 10 52 -3 8 1 25 10 38 9
12 16 37 16 56 0 18 7 47 16 63 8 17 14 43 13 57 -2 15 5 39 15 55 12 17 16
37 13 55 -3 17 1 34 11 45 9 10 16 35 17 55 1 20 7 47 13 59 7 12 12 37 12 55
0 18 7 42 15 52 8 11 15 35 15 53 0 19 7 48 16 64 8 17 14 43 12 59 -1 15 4
35 12 45 8 9 14 34 15 55 0 21 7 45 14 54 7 8 13 32 14 53 0 21 6 47 14 58 7
11 13 34 13 51 0 17 7 45 16 63 9 18 14 45 12 62 -3 16 -1 29 3 29 13 0 31 60
26 82 -4 14 0 29 10 40 9 11 17 35 18 56 0 20 6 47 13 59 6 12 12 37 12 55 0
18 7 42 15 52 8 11 15 35 15 53 0 19 7 48 16 65 9 17 14 42 11 57 -3 16 1 33
11 44 9 10 16 36 17 57 0 22 6 45 13 52 7 7 12 30 12 53 0 22 7 49 15 59 8 11
15 34 15 52 0 17 7 45 15 60 8 16 15 42 15 57 0 15 7 42 16 59 9 17 14 42 11
57 -3 16 1 33 11 44 9 10 16 34 17 55 0 20 6 47 13 59 6 12 12 37 12 55 0 18
7 42 15 52 8 11 15 35 15 53 0 19 7 48 16 65 10 18 14 42 10 59 -3 16 -2 29 3
29 14 0 31 60 25 84 -3 14 1 28 10 35 10 8 16 30 16 55 0 22 7 50 15 60 8 11
15 35 15 53 0 19 7 45 16 58 9 13 14 37 13 52 -2 15 5 43 15 62 11 20 16 45
12 61 -6 34 4 47 21 24 8 -11 9 -22 3 -35z m80 2 c0 -20 7 -46 15 -57 8 -10
15 -38 15 -60 0 -25 6 -47 16 -55 10 -8 13 -21 9 -36 -3 -12 2 -40 11 -60 9
-21 16 -48 15 -61 -1 -12 5 -36 13 -54 9 -17 16 -45 16 -63 0 -17 7 -40 15
-51 8 -10 15 -34 15 -52 0 -18 6 -43 12 -55 7 -12 13 -39 13 -59 1 -21 8 -45
17 -55 10 -11 14 -28 11 -44 -3 -15 2 -40 11 -57 9 -17 16 -46 16 -65 0 -18 7
-42 15 -53 8 -10 15 -35 15 -54 0 -20 6 -45 14 -56 8 -11 14 -36 14 -57 0 -21
6 -45 13 -53 7 -9 14 -33 14 -55 1 -21 8 -46 17 -56 10 -11 14 -28 11 -44 -3
-15 2 -40 11 -57 9 -17 16 -46 16 -65 0 -18 7 -42 15 -53 8 -10 15 -34 15 -52
0 -18 6 -43 12 -55 7 -12 13 -39 13 -59 1 -21 9 -45 18 -56 10 -11 14 -26 10
-40 -5 -22 13 -82 26 -82 4 0 5 -16 3 -35 -3 -22 2 -45 12 -60 9 -13 16 -39
16 -57 0 -19 6 -42 13 -53 8 -11 14 -37 14 -58 1 -21 7 -45 14 -53 7 -9 14
-33 14 -54 1 -21 7 -46 15 -55 8 -10 13 -30 12 -45 -2 -16 4 -42 12 -59 9 -16
16 -45 16 -64 0 -18 7 -42 15 -53 8 -10 15 -34 15 -52 0 -18 5 -43 12 -55 6
-12 12 -39 13 -59 1 -20 8 -45 17 -55 10 -11 14 -28 11 -45 -3 -18 1 -38 13
-55 10 -16 17 -42 15 -60 -1 -18 5 -43 13 -55 9 -12 16 -38 16 -58 0 -20 6
-44 13 -55 8 -11 14 -37 14 -58 1 -21 7 -45 14 -53 7 -9 14 -33 14 -54 1 -21
7 -46 15 -55 8 -10 13 -30 12 -45 -2 -16 4 -42 12 -59 9 -16 16 -45 16 -64 0
-18 7 -42 15 -53 8 -10 15 -34 15 -52 0 -18 5 -43 12 -55 6 -12 12 -38 13 -59
1 -20 7 -44 15 -53 8 -10 13 -31 11 -47 -1 -16 5 -41 15 -56 10 -15 17 -39 15
-54 -1 -14 5 -40 13 -57 9 -16 16 -45 16 -63 0 -19 7 -43 15 -55 8 -12 12 -28
9 -36 -3 -8 2 -32 11 -53 9 -22 18 -56 19 -76 1 -20 9 -44 16 -53 8 -10 13
-31 11 -47 -1 -16 4 -40 13 -53 9 -13 16 -41 16 -62 0 -21 7 -49 16 -61 9 -13
13 -30 10 -38 -3 -8 2 -32 10 -52 9 -20 18 -53 18 -74 1 -20 8 -44 16 -53 8
-10 13 -31 11 -47 -1 -16 4 -40 13 -53 9 -13 16 -39 16 -58 0 -18 7 -42 15
-53 8 -10 15 -37 15 -60 0 -22 6 -49 14 -60 8 -10 12 -29 10 -40 -3 -12 2 -37
11 -55 10 -18 18 -50 19 -70 1 -21 9 -45 16 -54 8 -10 13 -31 11 -47 -1 -16 4
-40 13 -53 9 -13 16 -42 16 -63 0 -24 6 -45 16 -53 10 -8 13 -21 9 -36 -3 -12
2 -40 11 -60 9 -21 17 -55 18 -75 1 -20 9 -44 16 -53 8 -10 13 -31 11 -47 -1
-16 4 -40 13 -53 9 -13 16 -39 16 -58 0 -18 7 -42 15 -53 8 -10 15 -37 15 -60
0 -22 6 -49 14 -60 8 -10 12 -29 10 -40 -3 -12 2 -37 12 -55 10 -19 17 -44 15
-57 -1 -12 5 -36 13 -54 15 -29 21 -68 12 -68 -3 0 -36 15 -73 34 -311 156
-860 256 -1406 256 l-119 0 7 29 c3 17 1 39 -5 51 -9 17 -9 29 0 51 9 21 9 37
1 59 -7 21 -7 39 0 57 6 17 6 36 0 55 -7 19 -6 38 1 59 8 22 7 37 -1 56 -9 20
-9 33 0 54 8 21 8 37 0 59 -7 21 -7 39 0 57 6 17 6 36 0 55 -7 19 -6 38 1 59
8 22 7 37 -1 56 -9 20 -9 33 0 54 8 21 8 37 0 59 -7 21 -7 39 0 57 6 17 6 36
0 55 -7 19 -6 38 1 59 8 22 7 37 -1 56 -9 20 -9 33 0 54 8 21 8 37 0 59 -7 21
-7 39 0 57 6 18 6 36 0 55 -7 19 -7 38 0 55 6 17 6 36 -1 58 -8 24 -8 39 1 58
8 19 9 34 1 57 -8 21 -8 39 -1 57 6 18 6 36 0 55 -7 19 -7 38 0 55 6 17 6 36
-1 58 -8 24 -8 39 1 58 8 19 9 34 1 57 -8 21 -8 39 -1 57 6 18 6 36 0 55 -7
19 -7 38 0 55 6 17 6 36 -1 58 -8 24 -8 39 1 58 8 19 9 34 1 57 -8 21 -8 39
-1 57 6 18 6 36 0 55 -7 19 -7 38 0 55 6 17 6 36 -1 58 -8 24 -8 39 1 58 8 19
9 34 1 56 -7 21 -8 40 -1 59 6 19 6 38 0 55 -7 18 -7 36 0 54 6 17 6 36 0 55
-7 19 -7 38 0 58 8 21 8 39 0 60 -7 21 -7 39 0 57 6 18 6 36 0 55 -7 19 -7 38
0 55 6 17 6 36 0 55 -7 19 -7 38 0 58 8 21 8 39 0 60 -7 21 -7 39 0 57 6 18 6
36 0 55 -7 19 -7 38 0 55 6 17 6 36 0 55 -7 19 -7 38 0 58 8 21 8 39 0 60 -7
21 -7 39 0 57 6 18 6 36 0 55 -7 19 -7 38 0 55 6 17 6 36 0 55 -7 19 -6 38 1
59 8 22 7 37 -1 56 -9 19 -9 34 -1 58 7 22 7 41 1 59 -7 17 -7 35 0 53 6 17 6
36 0 55 -7 19 -6 38 1 59 8 22 7 37 -1 56 -9 19 -9 34 -1 58 7 22 7 41 1 59
-7 17 -7 35 0 53 6 17 6 36 0 55 -7 19 -6 38 1 59 8 22 7 37 -1 56 -9 19 -9
34 -1 58 7 22 7 41 1 59 -7 17 -7 35 0 53 6 17 6 36 0 55 -7 19 -6 38 1 59 8
22 7 37 -1 56 -9 19 -9 34 -1 58 7 22 7 41 1 58 -7 17 -7 36 0 55 6 19 6 37 0
55 -7 18 -7 36 1 57 8 23 7 38 -1 57 -9 19 -9 34 -1 58 7 22 7 41 1 59 -7 17
-7 35 0 53 6 17 6 36 0 55 -7 19 -6 38 1 59 8 22 7 37 -1 56 -9 20 -9 33 0 54
8 21 8 37 1 59 -7 20 -8 39 -1 58 6 19 6 38 0 55 -7 18 -7 36 1 57 8 23 7 38
-1 57 -12 27 -6 67 10 58 5 -4 9 -23 9 -44z"/>
</g>
</svg>
